<svg xmlns="http://www.w3.org/2000/svg" viewBox="0 0 1440 560">
  <g fill="none" mask="url(&quot;#a&quot;)">
    <path stroke="url(&quot;#b&quot;)" stroke-width="2"
      d="m19.7 607.8 89.2 51.5v103l-89.2 51.5-89.2-51.5v-103zm356.8-618 89.2 51.5v103l-89.2 51.5-89.2-51.5v-103zm0 618 89.2 51.5v103l-89.2 51.5-89.2-51.5v-103zm178.4-618 89.2 51.5v103L555 195.8l-89.2-51.5v-103zm89.2 154.5 89.2 51.5v103l-89.2 51.5-89.2-51.5v-103zm89.2 154.5 89.2 51.5v103l-89.2 51.5-89.2-51.5v-103zM1001 144.3l89.2 51.5v103l-89.2 51.5-89.2-51.5v-103zm-89.2 154.5 89.2 51.5v103l-89.2 51.5-89.2-51.5v-103zm0 309 89.2 51.5v103l-89.2 51.5-89.2-51.5v-103zm178.4-309 89.2 51.5v103l-89.2 51.5-89.2-51.5v-103zm89.2 154.5 89.2 51.5v103l-89.2 51.5-89.2-51.5v-103zm-89.2 154.5 89.2 51.5v103l-89.2 51.5-89.2-51.5v-103zm178.4-618 89.2 51.5v103l-89.2 51.5-89.2-51.5v-103zm89.2 463.5 89.2 51.5v103l-89.2 51.5-89.2-51.5v-103zM1447-10.2l89.2 51.5v103l-89.2 51.5-89.2-51.5v-103z" />
    <path fill="url(&quot;#b&quot;)"
      d="M9.4 607.8a10.3 10.3 0 1 0 20.6 0 10.3 10.3 0 1 0-20.6 0zm89.2 51.5a10.3 10.3 0 1 0 20.6 0 10.3 10.3 0 1 0-20.6 0zm0 103a10.3 10.3 0 1 0 20.6 0 10.3 10.3 0 1 0-20.6 0zM9.4 813.8a10.3 10.3 0 1 0 20.6 0 10.3 10.3 0 1 0-20.6 0zm-89.2-51.5a10.3 10.3 0 1 0 20.6 0 10.3 10.3 0 1 0-20.6 0zm0-103a10.3 10.3 0 1 0 20.6 0 10.3 10.3 0 1 0-20.6 0zm446-669.5a10.3 10.3 0 1 0 20.6 0 10.3 10.3 0 1 0-20.6 0zm89.2 51.5a10.3 10.3 0 1 0 20.6 0 10.3 10.3 0 1 0-20.6 0zm0 103a10.3 10.3 0 1 0 20.6 0 10.3 10.3 0 1 0-20.6 0zm-89.2 51.5a10.3 10.3 0 1 0 20.6 0 10.3 10.3 0 1 0-20.6 0zM277 144.3a10.3 10.3 0 1 0 20.6 0 10.3 10.3 0 1 0-20.6 0zm0-103a10.3 10.3 0 1 0 20.6 0 10.3 10.3 0 1 0-20.6 0zm89.2 566.5a10.3 10.3 0 1 0 20.6 0 10.3 10.3 0 1 0-20.6 0zm89.2 51.5a10.3 10.3 0 1 0 20.6 0 10.3 10.3 0 1 0-20.6 0zm0 103a10.3 10.3 0 1 0 20.6 0 10.3 10.3 0 1 0-20.6 0zm-89.2 51.5a10.3 10.3 0 1 0 20.6 0 10.3 10.3 0 1 0-20.6 0zM277 762.3a10.3 10.3 0 1 0 20.6 0 10.3 10.3 0 1 0-20.6 0zm0-103a10.3 10.3 0 1 0 20.6 0 10.3 10.3 0 1 0-20.6 0zM544.6-10.2a10.3 10.3 0 1 0 20.6 0 10.3 10.3 0 1 0-20.6 0zm89.2 51.5a10.3 10.3 0 1 0 20.6 0 10.3 10.3 0 1 0-20.6 0zm0 103a10.3 10.3 0 1 0 20.6 0 10.3 10.3 0 1 0-20.6 0zm-89.2 51.5a10.3 10.3 0 1 0 20.6 0 10.3 10.3 0 1 0-20.6 0zm178.4 0a10.3 10.3 0 1 0 20.6 0 10.3 10.3 0 1 0-20.6 0zm0 103a10.3 10.3 0 1 0 20.6 0 10.3 10.3 0 1 0-20.6 0zm-89.2 51.5a10.3 10.3 0 1 0 20.6 0 10.3 10.3 0 1 0-20.6 0zm-89.2-51.5a10.3 10.3 0 1 0 20.6 0 10.3 10.3 0 1 0-20.6 0zm267.6 51.5a10.3 10.3 0 1 0 20.6 0 10.3 10.3 0 1 0-20.6 0zm0 103a10.3 10.3 0 1 0 20.6 0 10.3 10.3 0 1 0-20.6 0zM723 504.8a10.3 10.3 0 1 0 20.6 0 10.3 10.3 0 1 0-20.6 0zm-89.2-51.5a10.3 10.3 0 1 0 20.6 0 10.3 10.3 0 1 0-20.6 0zm356.8-309a10.3 10.3 0 1 0 20.6 0 10.3 10.3 0 1 0-20.6 0zm89.2 51.5a10.3 10.3 0 1 0 20.6 0 10.3 10.3 0 1 0-20.6 0zm0 103a10.3 10.3 0 1 0 20.6 0 10.3 10.3 0 1 0-20.6 0zm-89.2 51.5a10.3 10.3 0 1 0 20.6 0 10.3 10.3 0 1 0-20.6 0zm-89.2-51.5a10.3 10.3 0 1 0 20.6 0 10.3 10.3 0 1 0-20.6 0zm0-103a10.3 10.3 0 1 0 20.6 0 10.3 10.3 0 1 0-20.6 0zm89.2 257.5a10.3 10.3 0 1 0 20.6 0 10.3 10.3 0 1 0-20.6 0zm-89.2 51.5a10.3 10.3 0 1 0 20.6 0 10.3 10.3 0 1 0-20.6 0zm0 103a10.3 10.3 0 1 0 20.6 0 10.3 10.3 0 1 0-20.6 0zm89.2 51.5a10.3 10.3 0 1 0 20.6 0 10.3 10.3 0 1 0-20.6 0zm0 103a10.3 10.3 0 1 0 20.6 0 10.3 10.3 0 1 0-20.6 0zm-89.2 51.5a10.3 10.3 0 1 0 20.6 0 10.3 10.3 0 1 0-20.6 0zm-89.2-51.5a10.3 10.3 0 1 0 20.6 0 10.3 10.3 0 1 0-20.6 0zm0-103a10.3 10.3 0 1 0 20.6 0 10.3 10.3 0 1 0-20.6 0zm356.8-309a10.3 10.3 0 1 0 20.6 0 10.3 10.3 0 1 0-20.6 0zm0 103a10.3 10.3 0 1 0 20.6 0 10.3 10.3 0 1 0-20.6 0zm-89.2 51.5a10.3 10.3 0 1 0 20.6 0 10.3 10.3 0 1 0-20.6 0zm178.4 0a10.3 10.3 0 1 0 20.6 0 10.3 10.3 0 1 0-20.6 0zm0 103a10.3 10.3 0 1 0 20.6 0 10.3 10.3 0 1 0-20.6 0zm-89.2 51.5a10.3 10.3 0 1 0 20.6 0 10.3 10.3 0 1 0-20.6 0zm-89.2-51.5a10.3 10.3 0 1 0 20.6 0 10.3 10.3 0 1 0-20.6 0zm89.2 154.5a10.3 10.3 0 1 0 20.6 0 10.3 10.3 0 1 0-20.6 0zm-89.2 51.5a10.3 10.3 0 1 0 20.6 0 10.3 10.3 0 1 0-20.6 0zm178.4-824a10.3 10.3 0 1 0 20.6 0 10.3 10.3 0 1 0-20.6 0zm89.2 51.5a10.3 10.3 0 1 0 20.6 0 10.3 10.3 0 1 0-20.6 0zm0 103a10.3 10.3 0 1 0 20.6 0 10.3 10.3 0 1 0-20.6 0zm-89.2 51.5a10.3 10.3 0 1 0 20.6 0 10.3 10.3 0 1 0-20.6 0zm-89.2-51.5a10.3 10.3 0 1 0 20.6 0 10.3 10.3 0 1 0-20.6 0zm0-103a10.3 10.3 0 1 0 20.6 0 10.3 10.3 0 1 0-20.6 0zm178.4 412a10.3 10.3 0 1 0 20.6 0 10.3 10.3 0 1 0-20.6 0zm89.2 51.5a10.3 10.3 0 1 0 20.6 0 10.3 10.3 0 1 0-20.6 0zm0 103a10.3 10.3 0 1 0 20.6 0 10.3 10.3 0 1 0-20.6 0zm-89.2 51.5a10.3 10.3 0 1 0 20.6 0 10.3 10.3 0 1 0-20.6 0zm89.2-669.5a10.3 10.3 0 1 0 20.6 0 10.3 10.3 0 1 0-20.6 0zm89.2 51.5a10.3 10.3 0 1 0 20.6 0 10.3 10.3 0 1 0-20.6 0zm0 103a10.3 10.3 0 1 0 20.6 0 10.3 10.3 0 1 0-20.6 0zm-89.2 51.5a10.3 10.3 0 1 0 20.6 0 10.3 10.3 0 1 0-20.6 0z" />
    <path stroke="url(&quot;#c&quot;)" stroke-width="2"
      d="m73.6 47.5 43.3 25v50l-43.3 25-43.3-25v-50zm-43.3 375 43.3 25v50l-43.3 25-43.3-25v-50zm173.2-300 43.3 25v50l-43.3 25-43.3-25v-50zm0 300 43.3 25v50l-43.3 25-43.3-25v-50zm130-75 43.2 25v50l-43.3 25-43.3-25v-50zm43.2-225 43.3 25v50l-43.3 25-43.3-25v-50zm43.3 75 43.3 25v50l-43.3 25-43.3-25v-50zm86.6-150 43.3 25v50l-43.3 25-43.3-25v-50zm-43.3 225 43.3 25v50l-43.3 25-43.3-25v-50zm43.3 225 43.3 25v50l-43.3 25-43.3-25v-50zm43.3-225 43.3 25v50l-43.3 25-43.3-25v-50zm259.9-150 43.3 25v50l-43.4 25-43.3-25v-50zm43.3 75 43.3 25v50l-43.4 25-43.3-25v-50zm0 150 43.3 25v50l-43.4 25-43.3-25v-50zm-43.4 75 43.3 25v50l-43.3 25-43.3-25v-50zm86.6-450 43.4 25v50l-43.4 25-43.3-25v-50zm216.6 225 43.3 25v50l-43.3 25-43.3-25v-50zm86.6-150 43.3 25v50l-43.3 25-43.3-25v-50zm-43.3 75 43.3 25v50l-43.3 25-43.3-25v-50zm86.6-150 43.3 25v50l-43.3 25-43.3-25v-50zm43.3 525 43.3 25v50l-43.3 25-43.3-25v-50zm173.2-450 43.3 25v50l-43.3 25-43.3-25v-50zm-43.3 75 43.3 25v50l-43.3 25-43.3-25v-50z" />
  </g>
  <defs>
    <linearGradient id="b" x1="220" x2="1220" y1="780" y2="-220" gradientUnits="userSpaceOnUse">
      <stop offset="0" stop-color="#000" />
      <stop offset="0" stop-color="rgba(3, 114, 72, 1)" />
    </linearGradient>
    <linearGradient id="c" x1="220" x2="1220" y1="-220" y2="780" gradientUnits="userSpaceOnUse">
      <stop offset="0" stop-color="rgba(14, 42, 71, 1)" />
      <stop offset=".4" stop-color="rgba(0, 178, 109, 1)" />
    </linearGradient>
    <mask id="a">
      <path fill="#fff" d="M0 0h1440v560H0z" />
    </mask>
  </defs>
</svg>