<svg xmlns="http://www.w3.org/2000/svg" viewBox="0.18 1099.02 4826.65 1131.16">
  <path fill="#00b26d"
    d="M560.84 2029.46c-15.4-198.34 79.3-103.12 156.36-139.37 41.45-19.5 42.67-95.77 71.32-120.02 45.4-38.45 101.5-15.5 142.64-54.2 13.38-12.6 11.2-66.83 24.69-89.05 14.58-24.01 40.2-29.64 57.6-54.2 15.89-22.42 31.36-84.24 52.12-96.8 31.4-18.98 100.59-62.15 134.41-54.2 48.5 11.41 92.48 96.75 98.75 158.74 1.82 17.93 26.09-1.24 38.41 3.87 22.52 9.35 43.32 38.52 65.83 46.46 34.78 12.27 69.24-.5 104.24 7.74 47.95 11.28 51.46 83.76 82.29 120.02 23.74 27.92 50.04 39.65 71.32 69.7 22.15 31.24 74.68 46.88 101.5 65.8 50.1 35.37 117.95 147.32 117.95 228.43 0 9.4-92.87 1.04-98.75 0-123.71-21.83-240.44-14.84-364.83-3.87-268.03 23.64-553.08-124.38-809.22-3.87-40.43 19.02-40.18-48.8-46.63-85.18Zm0 0">
  </path>
  <path fill="#037248" d="M3229.94 2170.68h1596.89v-63.06H3229.94Zm0 0"></path>
  <path fill="#00b26d"
    d="M4574.55 1744.48c-.14.02-.29.2-.46.57-.7 1.5.3 5.63 2.2 11.15l-.23-1.58c-.4-2.82-.56-10.3-1.5-10.14Zm1.73 11.72c3 21.33 6.22 42.69 7.84 64.16 4.44 58.94 3.02 122.43-18.57 178.2-10.03 25.9-26.5 50.48-53.39 60.46-1.3 13.7-8.18 33.36-8.28 48.6h90.17c4.11-2.8 11.55-6.84 27.35-12.53 4.64-1.66 16.89 1.75 14.55-2.59-5.35-9.95-47.93 5.02-54.58 5.98-3.21.47 32.1-26.73 70.85-35.42 10.22-2.29 39.24 1.08 30.96-5.32-50.18-38.76-96.79 6.91-139.68 28.64-9.08 4.6 13.7-15.07 20.07-23 12.98-16.15 29.35-28.64 42.3-44.87 46.85-58.64 45.82-125.36 40.62-194.43-.2-2.67.35 5.33.4 8 .23 12.04-.45 23.74-2.94 35.55-5.68 26.92-9.88 56.41-20.21 81.89-14.88 36.7-27.3 72.53-57.47 100-7.85 7.16-19.2 13.28-28.32 20.47 5.38-6.65 9.76-14.14 14.12-21.45 14.2-23.78 28-46.46 37.74-72.55 19.22-51.49 23.85-101.19 12.83-155.15-1.83-8.94-19.81-45.54-26.36-64.64Zm0 0">
  </path>
  <path fill="#00b26d"
    d="M3532.3 2110.13c-69-24.26-175.21-130.18-148.5-215.45 16.34-52.2 66.46-56.4 111.48-45.03 18.95 4.8 39.81 56 45.32 37.23 28.65-97.4-39.9-191.5 40.86-299.09 34.73-46.25 90.1-46.07 128.99-7.75 13.93 13.72 32.97 68.88 31.63 49.38-9.9-143.93 177.95-235.24 304.27-193.55 101.84 33.61 77.67 82.16 124.87 137.5 2.09 2.45 51.73-31.35 55.07-32.19 39.73-10 79.4.5 109.5 28.7 95.78 89.78 36.85 107.16 43.64 205.85.82 11.93 23.94.34 35.82 1.65 33.86 3.72 62.2 11.69 83.3 40.22 44.83 60.58 47.8 148.58-4.72 202.83-6.72 6.93 20.04 4.94 26.18 12.39 16.51 20.05 26.99 50.23 10.05 73.66Zm0 0">
  </path>
  <path fill="#037248"
    d="M3988.33 1579.76c-74.8.94-156.36 37.36-188.14 95.17-28.28 51.43-14.4 116.3-21.31 171.38-3.3 26.37-18.5-50.26-32.86-72.62-28.38-44.19-84.83-69.36-106.12-5.65-24.73 74-8.55 187.03-44.23 253.33-3.57 6.64-13.1-7.54-20.02-10.55-68.73-29.82-76.38 31.01-43.77 71.8 9 11.24 19.4 21.2 29.55 31.4l890.07-3.26c19.3-32.06 23.28-70.32-14.64-93.98-8.41-5.25-27.54-.92-32.8-5.53-15.76-13.8 169.04-174.86-85.14-171.44-11.7.15 9.62-21.72 11.15-33.33 4.7-35.8 3.26-81.03-21.76-108.93-30-33.44-78.56-58.56-107.39-8.25-12.62 22.02-18.75 91.4-31.38 69.39-25.92-45.23-25.27-98.17-66.07-139.28-27.81-28.02-70.26-40.22-115.14-39.65Zm0 0">
  </path>
  <path fill="#037248" d="M1696.08 2170.68h1596.89v-63.06h-1596.9Zm0 0"></path>
  <path fill="#86d77d"
    d="M1998.45 2110.13c-69-24.26-175.21-130.18-148.5-215.45 16.34-52.2 66.45-56.4 111.48-45.03 18.95 4.8 39.8 56 45.32 37.23 28.64-97.4-39.91-191.5 40.86-299.09 34.73-46.25 90.09-46.07 129-7.75 13.91 13.72 32.96 68.88 31.62 49.38-9.91-143.93 177.95-235.24 304.26-193.55 101.84 33.61 77.67 82.16 124.88 137.5 2.1 2.45 51.73-31.35 55.07-32.19 39.72-10 79.4.5 109.5 28.7 95.78 89.78 36.85 107.16 43.64 205.85.82 11.93 23.94.34 35.81 1.65 33.87 3.72 62.2 11.69 83.3 40.22 44.83 60.58 47.81 148.58-4.71 202.83-6.72 6.93 20.04 4.94 26.17 12.39 16.51 20.05 27 50.23 10.05 73.66Zm0 0">
  </path>
  <path fill="#037248"
    d="M2454.48 1579.76c-74.8.94-156.36 37.36-188.14 95.17-28.28 51.43-14.41 116.3-21.3 171.38-3.31 26.37-18.52-50.26-32.88-72.62-28.37-44.19-84.82-69.36-106.1-5.65-24.75 74-8.56 187.03-44.24 253.33-3.57 6.64-13.1-7.54-20.02-10.55-68.73-29.82-76.38 31.01-43.78 71.8 9 11.24 19.41 21.2 29.56 31.4l890.07-3.26c19.3-32.06 23.28-70.32-14.65-93.98-8.4-5.25-27.53-.92-32.79-5.53-15.76-13.8 169.03-174.86-85.14-171.44-11.72.15 9.62-21.72 11.15-33.33 4.69-35.8 3.26-81.03-21.76-108.93-30-33.44-78.56-58.56-107.39-8.25-12.62 22.02-18.75 91.4-31.38 69.39-25.92-45.23-25.28-98.17-66.07-139.28-27.81-28.02-70.26-40.22-115.14-39.65Zm0 0">
  </path>
  <path fill="#037248" d="M119.17 2170.68h1596.9v-63.06H119.16Zm0 0"></path>
  <path fill="#00b26d"
    d="M1463.79 1744.48c-.14.02-.29.2-.46.57-.69 1.5.3 5.63 2.19 11.15l-.22-1.58c-.4-2.82-.57-10.3-1.51-10.14Zm1.73 11.72c3 21.33 6.22 42.69 7.84 64.16 4.43 58.94 3.02 122.43-18.57 178.2-10.03 25.9-26.5 50.48-53.4 60.46-1.29 13.7-8.18 33.36-8.28 48.6h90.18c4.1-2.8 11.55-6.84 27.35-12.53 4.64-1.66 16.88 1.75 14.55-2.59-5.35-9.95-47.94 5.02-54.58 5.98-3.21.47 32.09-26.73 70.85-35.42 10.22-2.29 39.24 1.08 30.95-5.32-50.17-38.76-96.78 6.91-139.68 28.64-9.07 4.6 13.7-15.07 20.08-23 12.98-16.15 29.35-28.64 42.31-44.87 46.84-58.64 45.81-125.36 40.61-194.43-.2-2.67.34 5.33.4 8 .23 12.04-.45 23.74-2.94 35.55-5.68 26.92-9.88 56.41-20.21 81.89-14.88 36.7-27.3 72.53-57.47 100-7.85 7.16-19.2 13.28-28.32 20.47 5.38-6.65 9.76-14.14 14.12-21.45 14.2-23.78 28-46.46 37.73-72.55 19.23-51.49 23.85-101.19 12.84-155.15-1.83-8.94-19.81-45.54-26.36-64.64ZM411.24 2085.25c-133.47-104.87-271.55-221.54-359.08-368.82-9.2-15.47-51.98-57.48-51.98-76.22 0-2.28 3.41 3.02 5.18 4.47 10.22 8.37 19.8 17.49 30.02 25.9 28.8 23.72 54.3 54.22 79.52 81.82 51.56 56.4 105.8 110 156.97 166.8 14.45 16.03 29.2 31.76 42.86 48.46 6.47 7.9 20.27 33.67 19.68 23.48-2.61-44.66-94.91-169.68-117.62-219.17-17.51-38.15-28.12-78.77-44.11-117.6-6.05-14.67-12.7-28.98-17.4-44.17-.84-2.74-4-10.3-1.86-8.38 68.75 61.87 128.25 188.73 165.04 275.82 12.45 29.46 21.85 59.33 32.31 89.45 4.84 13.96 14.29 56.7 14.29 41.94 0-30.15-15.6-72.91-24.23-101.76-8.63-28.84-18.7-57.58-28.37-86.1-20.94-61.76-26.51-126.74-36.66-190.65-8.25-51.98 59.58 144.68 62.54 153.38 28.74 84.32 31.66 174.1 61.1 257.37 4.34 12.3 20.4 32.37 11.8 43.98Zm0 0">
  </path>
  <path fill="#86d77d"
    d="M421.54 2110.13c-69-24.26-175.2-130.18-148.5-215.45 16.34-52.2 66.45-56.4 111.48-45.03 18.95 4.8 39.8 56 45.32 37.23 28.64-97.4-39.91-191.5 40.86-299.09 34.73-46.25 90.1-46.07 129-7.75 13.91 13.72 32.96 68.88 31.62 49.38-9.9-143.93 177.95-235.24 304.27-193.55 101.83 33.61 77.67 82.16 124.87 137.5 2.1 2.45 51.73-31.35 55.07-32.19 39.72-10 79.4.5 109.5 28.7 95.78 89.78 36.85 107.16 43.64 205.85.82 11.93 23.94.34 35.81 1.65 33.87 3.72 62.2 11.69 83.3 40.22 44.83 60.58 47.81 148.58-4.71 202.83-6.72 6.93 20.04 4.94 26.18 12.39 16.51 20.05 26.99 50.23 10.05 73.66Zm0 0">
  </path>
  <path fill="#037248"
    d="M877.57 1579.76c-74.8.94-156.36 37.36-188.14 95.17-28.28 51.43-14.41 116.3-21.3 171.38-3.31 26.37-18.52-50.26-32.88-72.62-28.38-44.19-84.82-69.36-106.1-5.65-24.74 74-8.56 187.03-44.24 253.33-3.57 6.64-13.1-7.54-20.02-10.55-68.73-29.82-76.38 31.01-43.77 71.8 9 11.24 19.4 21.2 29.55 31.4l890.07-3.26c19.31-32.06 23.28-70.32-14.64-93.98-8.4-5.25-27.54-.92-32.8-5.53-15.76-13.8 169.04-174.86-85.14-171.44-11.72.15 9.62-21.72 11.15-33.33 4.69-35.8 3.26-81.03-21.76-108.93-30-33.44-78.56-58.56-107.39-8.25-12.62 22.02-18.75 91.4-31.38 69.39-25.92-45.23-25.27-98.17-66.07-139.28-27.81-28.02-70.26-40.22-115.14-39.65Zm0 0">
  </path>
  <path fill="#aaa"
    d="M1702.06 1995.19a17.5 17.5 0 0 1 17.53 17.52v188.65a17.5 17.5 0 0 1-17.53 17.53c-9.7 0-17.52-7.82-17.52-17.53v-188.65c0-9.7 7.81-17.52 17.52-17.52ZM1955.82 1995.19c9.72 0 17.53 7.81 17.53 17.52v188.65c0 9.71-7.81 17.53-17.53 17.53a17.5 17.5 0 0 1-17.53-17.53v-188.65a17.5 17.5 0 0 1 17.53-17.52Zm0 0">
  </path>
  <path fill="#ccc"
    d="M1700.94 1099.02h256c65.97 0 119.08 53.1 119.08 119.08v681.72c0 65.97-53.11 119.07-119.08 119.07h-256a118.82 118.82 0 0 1-119.08-119.07V1218.1c0-65.97 53.1-119.08 119.08-119.08Zm0 0">
  </path>
  <path fill="#aaa" d="M1510.8 2203.87a27.46 27.46 0 0 0-27.34 24.2h692.4a27.46 27.46 0 0 0-27.34-24.2Zm0 0"></path>
  <path fill="#222"
    d="M1664.5 1185.49h328.88a44.14 44.14 0 0 1 44.24 44.24v220.37a44.14 44.14 0 0 1-44.24 44.24H1664.5a44.15 44.15 0 0 1-44.25-44.24v-220.37a44.15 44.15 0 0 1 44.25-44.24Zm0 0">
  </path>
  <path fill="#00b26d" d="m1854.86 1233.12-101.83 151.92 70.11-26.72-35.05 121.87 111.85-155.25h-71.8Zm0 0"></path>
  <path fill="none" stroke="#00b26d" stroke-linecap="round" stroke-linejoin="round" stroke-miterlimit="3"
    stroke-width="4.95"
    d="M1664.5 1185.49h328.88a44.14 44.14 0 0 1 44.24 44.24v220.37a44.14 44.14 0 0 1-44.24 44.24H1664.5a44.15 44.15 0 0 1-44.25-44.24v-220.37a44.15 44.15 0 0 1 44.25-44.24Zm0 0">
  </path>
  <path fill="#00b26d"
    d="M1762.23 1620.77h134.86a23.34 23.34 0 0 1 23.39 23.39v113.33a23.34 23.34 0 0 1-23.39 23.4h-134.86a23.34 23.34 0 0 1-23.39-23.4v-113.33a23.34 23.34 0 0 1 23.39-23.39Zm0 0">
  </path>
  <path
    d="m2069.16 1681.92-239.64 1.53.3 27.13 239.64-1.53c10.95-.08 25.48 6.26 36.75 16.68s18.44 24.29 18.44 34.25v328.31c0 71.6 60.61 112.47 121.23 113.05 60.62.59 121.26-39.66 120.35-112.02l-1.41-111.39c-.1-8.1 3.93-20.46 10.45-29.35 6.52-8.88 14.05-13.17 19.82-13.22l119.8-1.18-.37-27.13-119.8 1.18c-21.49.2-37.25 12.68-47.15 26.18-9.89 13.5-15.4 29.14-15.22 43.8l1.41 111.4c.76 60.35-43.16 85.03-87.51 84.6-44.35-.42-89.12-26.48-89.12-85.92v-328.31c0-19.36-11.07-37.87-26.82-52.44-15.75-14.56-37-25.8-61.15-25.62Zm0 0">
  </path>
  <path fill="#111"
    d="M2783.82 2106.56c-138.89-13.33-248.88-34.87-371.63-18.9-3.2-75 5-135.89 15.56-218.53l347.25-1.72c4.75 31.67 10.28 234.16 8.82 239.15ZM4043.85 2104.84c-138.89-13.32-243.35-13.8-366.1 2.17-3.2-75.01-2.38-155.24 8.17-237.88l347.25-1.72c8.72 79.49 18.08 159.41 10.68 237.43Zm0 0">
  </path>
  <path fill="#222"
    d="M3691.71 2057.68c0 95.27 76.99 172.5 171.97 172.5s171.98-77.23 171.98-172.5-77-172.5-171.98-172.5c-94.98 0-171.97 77.23-171.97 172.5ZM2426.47 2057.68c0 95.27 77 172.5 171.98 172.5 94.98 0 171.98-77.23 171.98-172.5s-77-172.5-171.98-172.5c-94.98 0-171.98 77.23-171.98 172.5Zm0 0">
  </path>
  <path fill="#ccc"
    d="M3863.68 1915.57c37.6 0 73.7 14.97 100.28 41.63a142.25 142.25 0 0 1 41.54 100.48c0 78.48-63.5 142.1-141.82 142.1s-141.82-63.62-141.82-142.1c0-78.48 63.5-142.1 141.82-142.11Zm1.74 17.23a126.23 126.23 0 0 0-89.36 37.08 126.74 126.74 0 0 0-37 89.53c0 33.59 13.3 65.8 37 89.54a126.22 126.22 0 0 0 178.71 0 126.75 126.75 0 0 0 37.01-89.54c0-69.93-56.57-126.61-126.36-126.61Zm0 0">
  </path>
  <path fill="#ccc"
    d="M3741.9 2058.25c0 67.4 54.53 122.03 121.78 122.03 67.26 0 121.78-54.63 121.78-122.03s-54.52-122.02-121.78-122.02c-67.25 0-121.78 54.63-121.78 122.02Zm0 0">
  </path>
  <path fill="#111"
    d="m3853.66 2033.11-9.93-86.9c-39.84 8.34-58.06 29.98-74.55 52.66l73.95 41.94ZM3875.7 2033.93l9.93-86.92c39.84 8.36 58.06 29.99 74.55 52.68l-73.95 41.93ZM3886.32 2069.03l63.74 59.92c25.01-32.13 24.94-60.4 22.87-88.38l-83.54 15.78ZM3857.13 2084.05l-45.56 74.68c36.57 17.88 64.24 12 91.2 4.23l-32.6-78.52ZM3837.91 2060.28l-84.3-23.39c-7.19 40.08 6.03 65.07 20.88 88.87l66.6-52.83Zm0 0">
  </path>
  <path fill="#ccc"
    d="M2598.45 1915.57c37.6 0 73.7 14.97 100.28 41.63a142.25 142.25 0 0 1 41.54 100.48c0 78.48-63.5 142.1-141.82 142.1s-141.82-63.62-141.82-142.1c0-78.48 63.5-142.1 141.82-142.11Zm1.74 17.23a126.24 126.24 0 0 0-89.36 37.08 126.74 126.74 0 0 0-37.01 89.53c0 33.59 13.3 65.8 37 89.54a126.22 126.22 0 0 0 178.71 0 126.75 126.75 0 0 0 37.02-89.54c0-69.93-56.58-126.61-126.36-126.61Zm0 0">
  </path>
  <path fill="#ccc"
    d="M2476.67 2058.25c0 67.4 54.53 122.03 121.78 122.03 67.26 0 121.78-54.63 121.78-122.03s-54.52-122.02-121.78-122.02c-67.25 0-121.78 54.63-121.78 122.02Zm0 0">
  </path>
  <path fill="#111"
    d="m2588.43 2033.11-9.93-86.9c-39.84 8.34-58.06 29.98-74.55 52.66l73.94 41.94ZM2610.47 2033.93l9.92-86.92c39.85 8.36 58.07 29.99 74.56 52.68l-73.95 41.93ZM2621.09 2069.03l63.74 59.92c25.01-32.13 24.94-60.4 22.87-88.38l-83.54 15.78ZM2591.9 2084.05l-45.56 74.68c36.57 17.88 64.23 12 91.2 4.23l-32.61-78.52ZM2572.68 2060.28l-84.3-23.39c-7.19 40.08 6.03 65.07 20.88 88.87l66.6-52.83Zm0 0">
  </path>
  <path fill="#464181"
    d="m2412.24 2087.94-22.08-12.76-23.7-2.84-33.03-19.05-41.12-37.27-5.33-17.79 6.02-26.36-.57-89.1 23.5-34.95 1.14-65.9 11.74-30.08 35.53-34.39 10.03-4.87c50.47-44.99 105.7-87.33 165.9-126.92l-6.9-11.75 3.74-7.16c97.94-6.99 187.43-20.31 281.13-30.47 121.78-9.87 242.76-12.6 362.37-3.05 212.44 5.4 386.31 147.22 526.6 193.68l2.87 5.73 4.01-6.3c130.67 19.88 264.95 35.35 377.05 77.93 36.27 13.82 70.36 29.52 91.68 56.15l24.07 55.58 17.19 28.66c7.65 17.7 5.23 37.86 1.15 54.43-.96 5.27-4.27 5.09-7.45 5.16l-12.03 57.88c6.8.68 12.64 2.01 14.9 5.73 2.7 6.28-.1 13.19-6.31 14.9l-170.76 22.34 1.86-26.23c.41-58.35-11.84-110.23-53.55-156.5-38.96-43.51-140.58-69.8-225.92-26.1-39.7 25.78-73.9 67.22-85.74 172.25l-2.24 38.87-894.74-.35c9.02-203.79-123.37-275.08-278.22-213.39-81.3 36.14-84.28 120.19-92.8 194.29Zm0 0">
  </path>
  <path fill="#ddd"
    d="M3647.59 1731.46c-234.43-124.34-362.28-191.45-604.28-188.42-171.9 3.09-325.33 23.75-467.52 55.1-9.41 2.5-13.73 14.8-9.86 18.59 40.78 32.53 83.04 64.17 140.85 86.51 29.04 9.28 62.36 8.47 94.82 9.7Zm0 0">
  </path>
  <path fill="#ddd"
    d="M4022.47 1829.55c53.85 8.68 130.22 10.61 142.4 31.8 3.88 2.54 7.85 5.07 21.65 7.6l20.37 47.05.36.6c-10.93-11.1-22.38-16.1-36.36-13.14l-24.64 11.75c-9.44 2.34-17.87.61-25.79-3.15Zm0 0">
  </path>
  <path fill="#464181"
    d="M4197.55 2001.1c2.03-1.08 19.97-1.24 20.64 5.74 1.04 12.18-2.36 39.8-11.97 54.14-2.66 3.66-7.17 1.67-8.16-.5-2.3-19.33-2.83-39.05-.5-59.38Zm0 0">
  </path>
  <path fill="#ddd"
    d="M2388.36 1780.65c23.62.1 41.66 2.6 49.14 10.08 26.04 30.15 11.74 68.07-18.23 68.07-31.76.66-65.72-.88-105.32-8.05l1.97-2.94 1.11-63.57c25.79-1.9 50.7-3.67 71.33-3.59Zm0 0">
  </path>
  <path fill="#222"
    d="M3070.02 1543.02c19.96.2 39.2.87 57.75 2.07l52.09 176.13-133.05-2.92ZM2724.77 1570.21l-10.1 135.26c-2.65-.68-5.3-1.4-7.89-2.23a402.37 402.37 0 0 1-44.06-20.19l44.72-110.1c5.75-.94 11.54-1.84 17.33-2.74Zm0 0">
  </path>
  <path fill="#222"
    d="M3065.66 1542.96c227.75 1.3 354.83 68.05 581.93 188.5l-845.99-18.52c-32.46-1.23-65.78-.42-94.82-9.7-57.81-22.34-100.07-53.98-140.85-86.51-3.87-3.8.45-16.08 9.86-18.59 142.19-31.35 295.62-52.02 467.52-55.1 7.56-.1 15.01-.12 22.35-.08Zm-7.66 11.9c-6.9-.03-13.9-.01-20.99.07-161.4 2.7-305.47 20.75-438.99 48.14-8.83 2.2-12.9 12.93-9.25 16.24 38.28 28.42 77.96 56.07 132.25 75.58 27.27 8.1 58.55 7.41 89.03 8.48l794.36 16.18c-213.24-105.23-332.57-163.55-546.41-164.7Zm0 0">
  </path>
  <path fill="#464181"
    d="M3468.08 1674.88c-11.06 2.96-5.7 32.27 3.1 41.07 5.8 5.82 27.08 4.65 40.83 3.43 7.92-1.4 12.68-6.55 9.49-14.3-9.3-16.13-33.5-36.85-53.42-30.2Zm0 0">
  </path>
  <path fill="#464181"
    d="M3464.05 1678.02c19.04 6.66 38.08 20.48 57.12 36.23-1.73 2.63-5.01 4.4-9.17 5.13-13.74 1.22-35.01 2.39-40.83-3.43-7.43-7.43-12.39-29.45-7.12-37.93Zm0 0">
  </path>
  <path
    d="M1816.34 1663.78h26.2a21.1 21.1 0 0 1 21.15 21.15v23.35a21.11 21.11 0 0 1-21.15 21.15h-26.2a21.1 21.1 0 0 1-21.15-21.15v-23.35a21.1 21.1 0 0 1 21.15-21.15Zm0 0">
  </path>
</svg>