<svg xmlns:xlink="http://www.w3.org/1999/xlink" viewBox="0 1390 3240 740">
    <path fill="none" stroke="#231F20" stroke-miterlimit="2.613" stroke-width="22.302"
        d="M-1491.463 1511.4c0 453.564 144.9 821.26 323.691 821.26 178.753 0 323.691-367.696 323.691-821.26s-144.938-821.221-323.69-821.221c-178.793 0-323.692 367.657-323.692 821.22zm0 0"
        transform="matrix(0 .0997 .1003 0 0 2160)" />
    <path fill="none" stroke="#231F20" stroke-miterlimit="2.613" stroke-width="30.465"
        d="M-3038.818-340.735c-.013 619.614 197.988 1121.858 442.178 1121.853s442.146-502.3 442.14-1121.84c-.008-619.542-197.963-1121.814-442.152-1121.808-244.19.005-442.173 502.253-442.166 1121.795zm0 0"
        transform="matrix(-.0632 .03649 .03672 .0636 0 2160)" />
    <path fill="none" stroke="#231F20" stroke-miterlimit="2.613" stroke-width="30.465"
        d="M-1443.589-2405.342c-.033 619.588 197.95 1121.836 442.14 1121.841s442.144-502.266 442.178-1121.853c.007-619.542-197.976-1121.79-442.166-1121.795-244.19-.006-442.191 502.239-442.152 1121.807zm0 0"
        transform="matrix(-.0632 -.03649 -.03672 .0636 0 2160)" />
    <path fill="#78C0DA" fill-rule="evenodd"
        d="M151.605 2036.164a7.416 7.416 0 0 0 0 14.832 7.416 7.416 0 0 0 0-14.832" />
    <path fill="none" stroke="#231F20" stroke-miterlimit="2.613" stroke-width="2.2371"
        d="M151.605 2036.164a7.416 7.416 0 0 0 0 14.832 7.416 7.416 0 0 0 0-14.832zm0 0" />
    <path fill="#86d77d" fill-rule="evenodd"
        d="M195.098 2055.406a4.812 4.812 0 0 1 4.812 4.813 4.81 4.81 0 1 1-4.813-4.813" />
    <path fill="none" stroke="#231F20" stroke-miterlimit="2.613" stroke-width="2.2372"
        d="M195.098 2055.406a4.812 4.812 0 0 1 4.812 4.813 4.81 4.81 0 1 1-4.813-4.813zm0 0" />
    <path fill="#ACDCAB" fill-rule="evenodd"
        d="M101.7 1992.871a4.811 4.811 0 1 1-.006 9.623 4.811 4.811 0 0 1 .005-9.623" />
    <path fill="none" stroke="#231F20" stroke-miterlimit="2.613" stroke-width="2.2372"
        d="M101.7 1992.871a4.811 4.811 0 1 1-.006 9.623 4.811 4.811 0 0 1 .005-9.623zm0 0" />
    <path fill="#C0DCD2" fill-rule="evenodd"
        d="M2011.012 1544.191c3.75 0 6.816 3.07 6.816 6.825v18.957c0 3.754-3.066 6.824-6.816 6.824s-6.82-3.07-6.82-6.824v-18.957c0-3.754 3.07-6.825 6.82-6.825" />
    <path fill="none" stroke="#231F20" stroke-miterlimit="2.613" stroke-width="2.934"
        d="M2011.012 1544.191c3.75 0 6.816 3.07 6.816 6.825v18.957c0 3.754-3.066 6.824-6.816 6.824s-6.82-3.07-6.82-6.824v-18.957c0-3.754 3.07-6.825 6.82-6.825zm0 0" />
    <path fill="#4caf8c" fill-rule="evenodd"
        d="M2011.012 1728.445c3.75 0 6.816 3.07 6.816 6.825v18.957c0 3.753-3.066 6.824-6.816 6.824s-6.82-3.07-6.82-6.824v-18.957c0-3.754 3.07-6.825 6.82-6.825" />
    <path fill="none" stroke="#231F20" stroke-miterlimit="2.613" stroke-width="2.934"
        d="M2011.012 1728.445c3.75 0 6.816 3.07 6.816 6.825v18.957c0 3.753-3.066 6.824-6.816 6.824s-6.82-3.07-6.82-6.824v-18.957c0-3.754 3.07-6.825 6.82-6.825zm0 0" />
    <path fill="#C0DCD2" fill-rule="evenodd"
        d="M2039.07 1547.887c3.63.968 5.801 4.73 4.828 8.355l-4.91 18.313c-.968 3.625-4.726 5.797-8.36 4.824-3.616-.973-5.788-4.73-4.82-8.36l4.91-18.308c.973-3.625 4.731-5.797 8.352-4.824" />
    <path fill="none" stroke="#231F20" stroke-miterlimit="2.613" stroke-width="2.934"
        d="M2039.07 1547.887c3.63.968 5.801 4.73 4.828 8.355l-4.91 18.313c-.968 3.625-4.726 5.797-8.36 4.824-3.616-.973-5.788-4.73-4.82-8.36l4.91-18.308c.973-3.625 4.731-5.797 8.352-4.824zm0 0" />
    <path fill="#C0DCD2" fill-rule="evenodd"
        d="M1991.379 1725.863c3.633.973 5.8 4.73 4.832 8.36l-4.91 18.308c-.973 3.625-4.73 5.797-8.352 4.824-3.629-.968-5.8-4.73-4.828-8.355l4.91-18.313c.969-3.624 4.73-5.796 8.348-4.824" />
    <path fill="none" stroke="#231F20" stroke-miterlimit="2.613" stroke-width="2.934"
        d="M1991.379 1725.863c3.633.973 5.8 4.73 4.832 8.36l-4.91 18.308c-.973 3.625-4.73 5.797-8.352 4.824-3.629-.968-5.8-4.73-4.828-8.355l4.91-18.313c.969-3.624 4.73-5.796 8.348-4.824zm0 0" />
    <path fill="#C0DCD2" fill-rule="evenodd"
        d="M2065.23 1558.719c3.25 1.875 4.372 6.07 2.489 9.32l-9.48 16.418c-1.868 3.25-6.067 4.375-9.317 2.496-3.25-1.875-4.371-6.07-2.5-9.32l9.476-16.418c1.883-3.25 6.07-4.375 9.332-2.496" />
    <path fill="none" stroke="#231F20" stroke-miterlimit="2.613" stroke-width="2.934"
        d="M2065.23 1558.719c3.25 1.875 4.372 6.07 2.489 9.32l-9.48 16.418c-1.868 3.25-6.067 4.375-9.317 2.496-3.25-1.875-4.371-6.07-2.5-9.32l9.476-16.418c1.883-3.25 6.07-4.375 9.332-2.496zm0 0" />
    <path fill="#C0DCD2" fill-rule="evenodd"
        d="M1973.102 1718.29c3.25 1.874 4.367 6.07 2.488 9.32l-9.469 16.417c-1.883 3.25-6.082 4.375-9.332 2.496-3.25-1.875-4.367-6.07-2.488-9.32l9.469-16.418c1.878-3.25 6.082-4.375 9.332-2.496" />
    <path fill="none" stroke="#231F20" stroke-miterlimit="2.613" stroke-width="2.934"
        d="M1973.102 1718.29c3.25 1.874 4.367 6.07 2.488 9.32l-9.469 16.417c-1.883 3.25-6.082 4.375-9.332 2.496-3.25-1.875-4.367-6.07-2.488-9.32l9.469-16.418c1.878-3.25 6.082-4.375 9.332-2.496zm0 0" />
    <path fill="#C0DCD2" fill-rule="evenodd"
        d="M2087.68 1575.95c2.66 2.655 2.66 6.995 0 9.652l-13.399 13.402c-2.66 2.656-7 2.656-9.652 0-2.66-2.652-2.66-6.996 0-9.649l13.402-13.406c2.649-2.652 7-2.652 9.649 0" />
    <path fill="none" stroke="#231F20" stroke-miterlimit="2.613" stroke-width="2.934"
        d="M2087.68 1575.95c2.66 2.655 2.66 6.995 0 9.652l-13.399 13.402c-2.66 2.656-7 2.656-9.652 0-2.66-2.652-2.66-6.996 0-9.649l13.402-13.406c2.649-2.652 7-2.652 9.649 0zm0 0" />
    <path fill="#C0DCD2" fill-rule="evenodd"
        d="M1957.39 1706.238c2.66 2.653 2.66 6.996 0 9.653l-13.402 13.402c-2.66 2.656-7 2.656-9.648 0-2.66-2.652-2.66-6.996 0-9.652l13.398-13.403c2.66-2.652 7-2.652 9.653 0" />
    <path fill="none" stroke="#231F20" stroke-miterlimit="2.613" stroke-width="2.934"
        d="M1957.39 1706.238c2.66 2.653 2.66 6.996 0 9.653l-13.402 13.402c-2.66 2.656-7 2.656-9.648 0-2.66-2.652-2.66-6.996 0-9.652l13.398-13.403c2.66-2.652 7-2.652 9.653 0zm0 0" />
    <path fill="#C0DCD2" fill-rule="evenodd"
        d="M2104.91 1598.406c1.88 3.25.762 7.446-2.488 9.32l-16.422 9.481c-3.25 1.875-7.45.754-9.32-2.496-1.88-3.254-.758-7.45 2.492-9.324l16.418-9.48c3.25-1.876 7.45-.75 9.32 2.5" />
    <path fill="none" stroke="#231F20" stroke-miterlimit="2.613" stroke-width="2.934"
        d="M2104.91 1598.406c1.88 3.25.762 7.446-2.488 9.32l-16.422 9.481c-3.25 1.875-7.45.754-9.32-2.496-1.88-3.254-.758-7.45 2.492-9.324l16.418-9.48c3.25-1.876 7.45-.75 9.32 2.5zm0 0" />
    <path fill="#C0DCD2" fill-rule="evenodd"
        d="M1945.34 1690.535c1.879 3.25.762 7.445-2.5 9.32l-16.41 9.48c-3.25 1.876-7.45.75-9.32-2.5-1.88-3.25-.758-7.444 2.492-9.32l16.418-9.48c3.25-1.875 7.449-.754 9.32 2.5" />
    <path fill="none" stroke="#231F20" stroke-miterlimit="2.613" stroke-width="2.934"
        d="M1945.34 1690.535c1.879 3.25.762 7.445-2.5 9.32l-16.41 9.48c-3.25 1.876-7.45.75-9.32-2.5-1.88-3.25-.758-7.444 2.492-9.32l16.418-9.48c3.25-1.875 7.449-.754 9.32 2.5zm0 0" />
    <path fill="#C0DCD2" fill-rule="evenodd"
        d="M2115.75 1624.559c.969 3.625-1.2 7.386-4.828 8.355l-18.313 4.906c-3.629.973-7.39-1.199-8.359-4.824s1.2-7.387 4.828-8.36l18.313-4.906c3.62-.968 7.379 1.2 8.359 4.829" />
    <path fill="none" stroke="#231F20" stroke-miterlimit="2.613" stroke-width="2.934"
        d="M2115.75 1624.559c.969 3.625-1.2 7.386-4.828 8.355l-18.313 4.906c-3.629.973-7.39-1.199-8.359-4.824s1.2-7.387 4.828-8.36l18.313-4.906c3.62-.968 7.379 1.2 8.359 4.829zm0 0" />
    <path fill="#C0DCD2" fill-rule="evenodd"
        d="M1937.77 1672.246c.968 3.625-1.2 7.387-4.829 8.36l-18.312 4.906c-3.617.968-7.379-1.2-8.36-4.828-.968-3.625 1.2-7.383 4.833-8.356l18.308-4.906c3.63-.973 7.39 1.2 8.36 4.824" />
    <path fill="none" stroke="#231F20" stroke-miterlimit="2.613" stroke-width="2.934"
        d="M1937.77 1672.246c.968 3.625-1.2 7.387-4.829 8.36l-18.312 4.906c-3.617.968-7.379-1.2-8.36-4.828-.968-3.625 1.2-7.383 4.833-8.356l18.308-4.906c3.63-.973 7.39 1.2 8.36 4.824zm0 0" />
    <path fill="#C0DCD2" fill-rule="evenodd"
        d="M2119.441 1652.621c0 3.754-3.07 6.824-6.82 6.824h-18.96c-3.75 0-6.821-3.07-6.821-6.824s3.07-6.824 6.82-6.824h18.961c3.75 0 6.82 3.07 6.82 6.824" />
    <path fill="none" stroke="#231F20" stroke-miterlimit="2.613" stroke-width="2.934"
        d="M2119.441 1652.621c0 3.754-3.07 6.824-6.82 6.824h-18.96c-3.75 0-6.821-3.07-6.821-6.824s3.07-6.824 6.82-6.824h18.961c3.75 0 6.82 3.07 6.82 6.824zm0 0" />
    <path fill="#C0DCD2" fill-rule="evenodd"
        d="M1935.18 1652.621c0 3.754-3.07 6.824-6.82 6.824h-18.962c-3.75 0-6.82-3.07-6.82-6.824s3.07-6.824 6.82-6.824h18.961c3.75 0 6.82 3.07 6.82 6.824" />
    <path fill="none" stroke="#231F20" stroke-miterlimit="2.613" stroke-width="2.934"
        d="M1935.18 1652.621c0 3.754-3.07 6.824-6.82 6.824h-18.962c-3.75 0-6.82-3.07-6.82-6.824s3.07-6.824 6.82-6.824h18.961c3.75 0 6.82 3.07 6.82 6.824zm0 0" />
    <path fill="#C0DCD2" fill-rule="evenodd"
        d="M2115.75 1680.684c-.98 3.629-4.738 5.796-8.36 4.828l-18.312-4.907c-3.629-.972-5.797-4.734-4.828-8.359s4.73-5.797 8.36-4.824l18.312 4.906c3.629.973 5.797 4.73 4.828 8.356" />
    <path fill="none" stroke="#231F20" stroke-miterlimit="2.613" stroke-width="2.934"
        d="M2115.75 1680.684c-.98 3.629-4.738 5.796-8.36 4.828l-18.312-4.907c-3.629-.972-5.797-4.734-4.828-8.359s4.73-5.797 8.36-4.824l18.312 4.906c3.629.973 5.797 4.73 4.828 8.356zm0 0" />
    <path fill="#C0DCD2" fill-rule="evenodd"
        d="M1937.77 1632.996c-.97 3.625-4.73 5.797-8.36 4.824l-18.308-4.906c-3.633-.969-5.801-4.73-4.832-8.355.98-3.63 4.742-5.797 8.359-4.829l18.312 4.907c3.63.972 5.797 4.734 4.829 8.36" />
    <path fill="none" stroke="#231F20" stroke-miterlimit="2.613" stroke-width="2.934"
        d="M1937.77 1632.996c-.97 3.625-4.73 5.797-8.36 4.824l-18.308-4.906c-3.633-.969-5.801-4.73-4.832-8.355.98-3.63 4.742-5.797 8.359-4.829l18.312 4.907c3.63.972 5.797 4.734 4.829 8.36zm0 0" />
    <path fill="#C0DCD2" fill-rule="evenodd"
        d="M2104.91 1706.836c-1.87 3.25-6.07 4.375-9.32 2.5l-16.418-9.48c-3.25-1.876-4.371-6.07-2.492-9.32 1.87-3.255 6.07-4.376 9.32-2.5l16.422 9.48c3.25 1.875 4.367 6.07 2.488 9.32" />
    <path fill="none" stroke="#231F20" stroke-miterlimit="2.613" stroke-width="2.934"
        d="M2104.91 1706.836c-1.87 3.25-6.07 4.375-9.32 2.5l-16.418-9.48c-3.25-1.876-4.371-6.07-2.492-9.32 1.87-3.255 6.07-4.376 9.32-2.5l16.422 9.48c3.25 1.875 4.367 6.07 2.488 9.32zm0 0" />
    <path fill="#C0DCD2" fill-rule="evenodd"
        d="M1945.34 1614.71c-1.871 3.25-6.07 4.372-9.32 2.497l-16.418-9.48c-3.25-1.875-4.372-6.07-2.493-9.32 1.871-3.25 6.07-4.376 9.32-2.5l16.41 9.48c3.263 1.875 4.38 6.07 2.5 9.324" />
    <path fill="none" stroke="#231F20" stroke-miterlimit="2.613" stroke-width="2.934"
        d="M1945.34 1614.71c-1.871 3.25-6.07 4.372-9.32 2.497l-16.418-9.48c-3.25-1.875-4.372-6.07-2.493-9.32 1.871-3.25 6.07-4.376 9.32-2.5l16.41 9.48c3.263 1.875 4.38 6.07 2.5 9.324zm0 0" />
    <path fill="#C0DCD2" fill-rule="evenodd"
        d="M2087.68 1729.293c-2.649 2.656-7 2.656-9.649 0l-13.402-13.402c-2.66-2.657-2.66-7 0-9.653 2.652-2.652 6.992-2.652 9.652 0l13.399 13.403c2.66 2.656 2.66 7 0 9.652" />
    <path fill="none" stroke="#231F20" stroke-miterlimit="2.613" stroke-width="2.934"
        d="M2087.68 1729.293c-2.649 2.656-7 2.656-9.649 0l-13.402-13.402c-2.66-2.657-2.66-7 0-9.653 2.652-2.652 6.992-2.652 9.652 0l13.399 13.403c2.66 2.656 2.66 7 0 9.652zm0 0" />
    <path fill="#C0DCD2" fill-rule="evenodd"
        d="M1957.39 1599.004c-2.652 2.656-6.992 2.656-9.652 0l-13.398-13.402c-2.66-2.657-2.66-6.997 0-9.653 2.648-2.652 6.988-2.652 9.648 0l13.403 13.406c2.66 2.653 2.66 6.997 0 9.649" />
    <path fill="none" stroke="#231F20" stroke-miterlimit="2.613" stroke-width="2.934"
        d="M1957.39 1599.004c-2.652 2.656-6.992 2.656-9.652 0l-13.398-13.402c-2.66-2.657-2.66-6.997 0-9.653 2.648-2.652 6.988-2.652 9.648 0l13.403 13.406c2.66 2.653 2.66 6.997 0 9.649zm0 0" />
    <path fill="#C0DCD2" fill-rule="evenodd"
        d="M2065.23 1746.523c-3.261 1.88-7.449.754-9.332-2.496l-9.476-16.418c-1.871-3.25-.75-7.445 2.5-9.32 3.25-1.879 7.45-.754 9.316 2.496l9.48 16.418c1.884 3.25.762 7.445-2.488 9.32" />
    <path fill="none" stroke="#231F20" stroke-miterlimit="2.613" stroke-width="2.934"
        d="M2065.23 1746.523c-3.261 1.88-7.449.754-9.332-2.496l-9.476-16.418c-1.871-3.25-.75-7.445 2.5-9.32 3.25-1.879 7.45-.754 9.316 2.496l9.48 16.418c1.884 3.25.762 7.445-2.488 9.32zm0 0" />
    <path fill="#C0DCD2" fill-rule="evenodd"
        d="M1973.102 1586.953c-3.25 1.879-7.454.754-9.332-2.496l-9.47-16.418c-1.878-3.25-.76-7.445 2.49-9.32 3.25-1.88 7.448-.754 9.331 2.496l9.469 16.418c1.879 3.25.762 7.445-2.488 9.32" />
    <path fill="none" stroke="#231F20" stroke-miterlimit="2.613" stroke-width="2.934"
        d="M1973.102 1586.953c-3.25 1.879-7.454.754-9.332-2.496l-9.47-16.418c-1.878-3.25-.76-7.445 2.49-9.32 3.25-1.88 7.448-.754 9.331 2.496l9.469 16.418c1.879 3.25.762 7.445-2.488 9.32zm0 0" />
    <path fill="#C0DCD2" fill-rule="evenodd"
        d="M2039.07 1757.355c-3.62.973-7.379-1.199-8.351-4.824l-4.91-18.308c-.97-3.63 1.203-7.387 4.82-8.36 3.633-.972 7.39 1.2 8.36 4.824l4.91 18.313c.972 3.625-1.2 7.387-4.829 8.355" />
    <path fill="none" stroke="#231F20" stroke-miterlimit="2.613" stroke-width="2.934"
        d="M2039.07 1757.355c-3.62.973-7.379-1.199-8.351-4.824l-4.91-18.308c-.97-3.63 1.203-7.387 4.82-8.36 3.633-.972 7.39 1.2 8.36 4.824l4.91 18.313c.972 3.625-1.2 7.387-4.829 8.355zm0 0" />
    <path fill="#C0DCD2" fill-rule="evenodd"
        d="M1991.379 1579.379c-3.617.973-7.379-1.2-8.348-4.824l-4.91-18.313c-.973-3.625 1.2-7.387 4.828-8.355 3.621-.973 7.38 1.199 8.352 4.824l4.91 18.309c.969 3.628-1.2 7.386-4.832 8.359" />
    <path fill="none" stroke="#231F20" stroke-miterlimit="2.613" stroke-width="2.934"
        d="M1991.379 1579.379c-3.617.973-7.379-1.2-8.348-4.824l-4.91-18.313c-.973-3.625 1.2-7.387 4.828-8.355 3.621-.973 7.38 1.199 8.352 4.824l4.91 18.309c.969 3.628-1.2 7.386-4.832 8.359zm0 0" />
    <path fill="#86d77d" fill-rule="evenodd"
        d="M2011.012 1569.52c-45.903 0-83.102 37.207-83.102 83.101 0 45.895 37.2 83.102 83.102 83.102 45.898 0 83.097-37.207 83.097-83.102 0-45.894-37.199-83.101-83.097-83.101" />
    <path fill="none" stroke="#231F20" stroke-miterlimit="2.613" stroke-width="2.9338"
        d="M2011.012 1569.52c-45.903 0-83.102 37.207-83.102 83.101 0 45.895 37.2 83.102 83.102 83.102 45.898 0 83.097-37.207 83.097-83.102 0-45.894-37.199-83.101-83.097-83.101zm0 0" />
    <path fill="#FFF" fill-rule="evenodd"
        d="M2011.012 1643.027c-5.301 0-9.59 4.297-9.59 9.594 0 5.3 4.289 9.594 9.59 9.594 5.297 0 9.59-4.293 9.59-9.594 0-5.297-4.293-9.594-9.59-9.594" />
    <path fill="none" stroke="#231F20" stroke-miterlimit="2.613" stroke-width="2.934"
        d="M2011.012 1643.027c-5.301 0-9.59 4.297-9.59 9.594 0 5.3 4.289 9.594 9.59 9.594 5.297 0 9.59-4.293 9.59-9.594 0-5.297-4.293-9.594-9.59-9.594zm0 0" />
    <path fill="#FEEF90" fill-rule="evenodd"
        d="M2562.078 1968.3c-33.25 0-60.2 26.95-60.2 60.196s26.95 60.195 60.2 60.195c33.242 0 60.192-26.949 60.192-60.195s-26.95-60.195-60.192-60.195" />
    <path fill="none" stroke="#231F20" stroke-miterlimit="2.613" stroke-width="2.0002"
        d="M2562.078 1968.3c-33.25 0-60.2 26.95-60.2 60.196s26.95 60.195 60.2 60.195c33.242 0 60.192-26.949 60.192-60.195s-26.95-60.195-60.192-60.195zm0 0" />
    <path fill="#00b26d" fill-rule="evenodd"
        d="M2503.57 2042.723c-22.879 12.757-36.86 23.234-35.07 27.277 2.95 6.633 47.23-6.57 98.898-29.492 51.68-22.922 91.192-46.88 88.25-53.516-1.789-4.043-18.949-.715-43.77 7.692.75 1.093 1.45 2.21 2.134 3.355 15.68-5.195 26.168-7.355 27.687-5.223 3 4.22-30.21 23.614-74.18 43.32-43.968 19.704-82.058 32.259-85.058 28.04-1.61-2.25 7.09-8.82 22.23-17.446a66 66 0 0 1-1.12-4.007" />
    <path fill="none" stroke="#231F20" stroke-miterlimit="2.613" stroke-width="2.0002"
        d="M2503.57 2042.723c-22.879 12.757-36.86 23.234-35.07 27.277 2.95 6.633 47.23-6.57 98.898-29.492 51.68-22.922 91.192-46.88 88.25-53.516-1.789-4.043-18.949-.715-43.77 7.692.75 1.093 1.45 2.21 2.134 3.355 15.68-5.195 26.168-7.355 27.687-5.223 3 4.22-30.21 23.614-74.18 43.32-43.968 19.704-82.058 32.259-85.058 28.04-1.61-2.25 7.09-8.82 22.23-17.446a66 66 0 0 1-1.12-4.007zm0 0" />
    <path fill="#FFF" fill-rule="evenodd"
        d="M2791.809 1426.492c-37.547 21.68-50.41 69.692-28.73 107.238 21.671 37.543 69.683 50.41 107.23 28.73 37.55-21.675 50.41-69.687 28.73-107.233-21.668-37.547-69.68-50.41-107.23-28.735" />
    <path fill="none" stroke="#231F20" stroke-miterlimit="2.613" stroke-width="2.4049"
        d="M2791.809 1426.492c-37.547 21.68-50.41 69.692-28.73 107.238 21.671 37.543 69.683 50.41 107.23 28.73 37.55-21.675 50.41-69.687 28.73-107.233-21.668-37.547-69.68-50.41-107.23-28.735zm0 0" />
    <path fill="#00b26d" fill-rule="evenodd"
        d="M2863.102 1549.969c-6.09 3.515-8.18 11.3-4.66 17.386 3.507 6.09 11.296 8.176 17.386 4.66 6.094-3.511 8.172-11.3 4.66-17.386-3.52-6.09-11.297-8.176-17.386-4.66" />
    <path fill="none" stroke="#231F20" stroke-miterlimit="2.613" stroke-width="2.4049"
        d="M2863.102 1549.969c-6.09 3.515-8.18 11.3-4.66 17.386 3.507 6.09 11.296 8.176 17.386 4.66 6.094-3.511 8.172-11.3 4.66-17.386-3.52-6.09-11.297-8.176-17.386-4.66zm0 0" />
    <path fill="#00b26d" fill-rule="evenodd"
        d="M2854.23 1407.996c-6.789-1.82-13.77 2.211-15.59 9-1.82 6.79 2.212 13.774 9 15.59 6.79 1.82 13.782-2.207 15.598-9 1.813-6.79-2.218-13.77-9.008-15.59" />
    <path fill="none" stroke="#231F20" stroke-miterlimit="2.613" stroke-width="2.4049"
        d="M2854.23 1407.996c-6.789-1.82-13.77 2.211-15.59 9-1.82 6.79 2.212 13.774 9 15.59 6.79 1.82 13.782-2.207 15.598-9 1.813-6.79-2.218-13.77-9.008-15.59zm0 0" />
    <path fill="#C0E5D4" fill-rule="evenodd"
        d="M2814.48 1556.367c-6.789-1.816-13.77 2.211-15.59 9.004-1.82 6.79 2.212 13.77 9 15.59 6.79 1.82 13.77-2.211 15.59-9 1.82-6.793-2.21-13.774-9-15.594" />
    <path fill="none" stroke="#231F20" stroke-miterlimit="2.613" stroke-width="2.4049"
        d="M2814.48 1556.367c-6.789-1.816-13.77 2.211-15.59 9.004-1.82 6.79 2.212 13.77 9 15.59 6.79 1.82 13.77-2.211 15.59-9 1.82-6.793-2.21-13.774-9-15.594zm0 0" />
    <path fill="#F0EADD" fill-rule="evenodd"
        d="M2908.602 1449.71c-3.524-6.089-11.301-8.175-17.391-4.66-6.09 3.516-8.18 11.302-4.66 17.391 3.52 6.09 11.3 8.176 17.39 4.66 6.09-3.515 8.168-11.3 4.66-17.39" />
    <path fill="none" stroke="#231F20" stroke-miterlimit="2.613" stroke-width="2.4049"
        d="M2908.602 1449.71c-3.524-6.089-11.301-8.175-17.391-4.66-6.09 3.516-8.18 11.302-4.66 17.391 3.52 6.09 11.3 8.176 17.39 4.66 6.09-3.515 8.168-11.3 4.66-17.39zm0 0" />
    <path fill="#C0E5D4" fill-rule="evenodd"
        d="M2917.54 1517.652c1.82-6.793-2.212-13.773-9-15.593-6.79-1.817-13.77 2.21-15.59 9.004-1.821 6.789 2.21 13.769 9 15.59 6.788 1.82 13.769-2.212 15.59-9" />
    <path fill="none" stroke="#231F20" stroke-miterlimit="2.613" stroke-width="2.4049"
        d="M2917.54 1517.652c1.82-6.793-2.212-13.773-9-15.593-6.79-1.817-13.77 2.21-15.59 9.004-1.821 6.789 2.21 13.769 9 15.59 6.788 1.82 13.769-2.212 15.59-9zm0 0" />
    <path fill="none" stroke="#231F20" stroke-miterlimit="2.613" stroke-width="32.743"
        d="m38161.405-10022.232-.007 288.903" transform="matrix(.0632 -.03648 -.03672 -.0636 0 2160)" />
    <path fill="#DCD37F" fill-rule="evenodd"
        d="M2786.29 1416.938c-6.08 3.515-8.169 11.304-4.661 17.39 3.52 6.09 11.312 8.176 17.39 4.66 6.09-3.515 8.18-11.3 4.66-17.39-3.507-6.086-11.3-8.172-17.39-4.66" />
    <path fill="none" stroke="#231F20" stroke-miterlimit="2.613" stroke-width="2.4049"
        d="M2786.29 1416.938c-6.08 3.515-8.169 11.304-4.661 17.39 3.52 6.09 11.312 8.176 17.39 4.66 6.09-3.515 8.18-11.3 4.66-17.39-3.507-6.086-11.3-8.172-17.39-4.66zm0 0" />
    <path fill="#E7E7E6" fill-rule="evenodd"
        d="M2749.379 1352.996c-6.09 3.516-8.18 11.305-4.66 17.39 3.511 6.09 11.3 8.177 17.39 4.66 6.09-3.515 8.172-11.3 4.66-17.39-3.519-6.086-11.3-8.172-17.39-4.66" />
    <path fill="none" stroke="#231F20" stroke-miterlimit="2.613" stroke-width="2.4049"
        d="M2749.379 1352.996c-6.09 3.516-8.18 11.305-4.66 17.39 3.511 6.09 11.3 8.177 17.39 4.66 6.09-3.515 8.172-11.3 4.66-17.39-3.519-6.086-11.3-8.172-17.39-4.66zm0 0" />
    <path fill="#F0EADD" fill-rule="evenodd"
        d="M2775.57 1526.516c-3.511-6.09-11.3-8.176-17.39-4.66-6.09 3.515-8.168 11.3-4.66 17.39 3.52 6.09 11.3 8.176 17.39 4.66 6.09-3.515 8.18-11.3 4.66-17.39" />
    <path fill="none" stroke="#231F20" stroke-miterlimit="2.613" stroke-width="2.4049"
        d="M2775.57 1526.516c-3.511-6.09-11.3-8.176-17.39-4.66-6.09 3.515-8.168 11.3-4.66 17.39 3.52 6.09 11.3 8.176 17.39 4.66 6.09-3.515 8.18-11.3 4.66-17.39zm0 0" />
    <path fill="none" stroke="#231F20" stroke-miterlimit="2.613" stroke-width="32.743"
        d="m-11500.71-36510.167.04 288.877" transform="matrix(-.03648 -.0632 -.0636 .03672 0 2160)" />
    <path fill="#C0E5D4" fill-rule="evenodd"
        d="M2689.578 1576.16c3.524 6.09 11.3 8.176 17.39 4.66 6.09-3.515 8.173-11.3 4.66-17.386-3.519-6.09-11.3-8.176-17.39-4.66-6.09 3.511-8.18 11.3-4.66 17.386" />
    <path fill="none" stroke="#231F20" stroke-miterlimit="2.613" stroke-width="2.4049"
        d="M2689.578 1576.16c3.524 6.09 11.3 8.176 17.39 4.66 6.09-3.515 8.173-11.3 4.66-17.386-3.519-6.09-11.3-8.176-17.39-4.66-6.09 3.511-8.18 11.3-4.66 17.386zm0 0" />
    <path fill="none" stroke="#231F20" stroke-miterlimit="2.613" stroke-width="29.357"
        d="m16902.194-30021.82.003 259.04" transform="matrix(.02106 -.07861 -.07912 -.0212 0 2160)" />
    <path fill="#00b26d" fill-rule="evenodd"
        d="M2673.262 1452.195c-1.82 6.79 2.207 13.774 9 15.59 6.789 1.82 13.77-2.21 15.59-9 1.82-6.793-2.211-13.77-9-15.59-6.793-1.82-13.774 2.211-15.59 9" />
    <path fill="none" stroke="#231F20" stroke-miterlimit="2.613" stroke-width="2.4049"
        d="M2673.262 1452.195c-1.82 6.79 2.207 13.774 9 15.59 6.789 1.82 13.77-2.21 15.59-9 1.82-6.793-2.211-13.77-9-15.59-6.793-1.82-13.774 2.211-15.59 9zm0 0" />
    <path fill="#F9EE62" fill-rule="evenodd"
        d="M3090.71 1903.121h53.368l-17.137 69.379h35.637l-56.469 156.094v-112.735h-43.25l27.852-112.738" />
    <path fill="none" stroke="#231F20" stroke-miterlimit="2.613" stroke-width="2.7325"
        d="M3090.71 1903.121h53.368l-17.137 69.379h35.637l-56.469 156.094v-112.735h-43.25zm0 0" />
    <path fill="#B0E5EF" fill-rule="evenodd"
        d="M1893.61 2002.57c55.37-15.136 105-10.05 110.85 11.364 5.849 21.41-34.28 51.035-89.651 66.171-55.368 15.137-104.989 10.051-110.848-11.359-5.852-21.41 34.289-51.039 89.648-66.176" />
    <path fill="none" stroke="#231F20" stroke-miterlimit="2.613" stroke-width="2.8995"
        d="M1893.61 2002.57c55.37-15.136 105-10.05 110.85 11.364 5.849 21.41-34.28 51.035-89.651 66.171-55.368 15.137-104.989 10.051-110.848-11.359-5.852-21.41 34.289-51.039 89.648-66.176zm0 0" />
    <path fill="none" stroke="#231F20" stroke-miterlimit="2.613" stroke-width="2.8995"
        d="M1950.488 2018.8a5.321 5.321 0 0 0-3.726 6.532c.77 2.832 3.699 4.5 6.527 3.727a5.325 5.325 0 0 0 3.73-6.532 5.322 5.322 0 0 0-6.53-3.726zm-23.297 1.032a5.324 5.324 0 0 0-3.73 6.531 5.318 5.318 0 0 0 10.258-2.804 5.314 5.314 0 0 0-6.528-3.727zm-74.901 30.434a5.327 5.327 0 0 0-3.731 6.53 5.324 5.324 0 0 0 6.53 3.727 5.324 5.324 0 0 0 3.731-6.53 5.322 5.322 0 0 0-6.53-3.727zm36.831 9.847a5.324 5.324 0 0 0-3.73 6.532 5.326 5.326 0 0 0 6.539 3.726 5.31 5.31 0 0 0 3.718-6.531 5.314 5.314 0 0 0-6.527-3.727zm3.231-31.113a5.313 5.313 0 0 0-3.723 6.531 5.313 5.313 0 0 0 6.531 3.727 5.312 5.312 0 0 0 3.719-6.531 5.314 5.314 0 0 0-6.527-3.727zm69.738-3.773a5.31 5.31 0 0 0-3.719 6.53c.77 2.833 3.7 4.5 6.527 3.727a5.324 5.324 0 0 0 3.73-6.53 5.322 5.322 0 0 0-6.538-3.727zm0 0" />
    <path fill="#F9EE62" fill-rule="evenodd"
        d="M1918.672 2092.457c40.848-11.168 73.598-30.926 89.86-53.574 2.366-3.301 2.07-2.477 1.019-6.34l-5.04-18.422c5.56 21.399-34.5 50.895-89.702 65.984-55.2 15.09-104.7 10.079-110.79-11.171l4.653 17.02c1.52 5.566.656 4.788 6.156 7.062 25.531 10.562 63.883 10.367 103.844-.559" />
    <path fill="none" stroke="#231F20" stroke-miterlimit="2.613" stroke-width="2.8995"
        d="M1918.672 2092.457c40.848-11.168 73.598-30.926 89.86-53.574 2.366-3.301 2.07-2.477 1.019-6.34l-5.04-18.422c5.56 21.399-34.5 50.895-89.702 65.984-55.2 15.09-104.7 10.079-110.79-11.171l4.653 17.02c1.52 5.566.656 4.788 6.156 7.062 25.531 10.562 63.883 10.367 103.844-.559zm0 0" />
    <path fill="#F9EE62" fill-rule="evenodd"
        d="M1805.172 2071.844c-1.25-21.067 37.598-48.516 90.187-62.89 52.582-14.38 100-10.513 109.641 8.26a16.25 16.25 0 0 0-.488-3.093l-.051-.187-.05-.192c-6.102-21.25-55.602-26.262-110.802-11.172-55.199 15.09-95.257 44.586-89.699 65.985l.05.191.06.188a15.4 15.4 0 0 0 1.152 2.91" />
    <path fill="none" stroke="#231F20" stroke-miterlimit="2.613" stroke-width="2.8995"
        d="M1805.172 2071.844c-1.25-21.067 37.598-48.516 90.187-62.89 52.582-14.38 100-10.513 109.641 8.26a16.25 16.25 0 0 0-.488-3.093l-.051-.187-.05-.192c-6.102-21.25-55.602-26.262-110.802-11.172-55.199 15.09-95.257 44.586-89.699 65.985l.05.191.06.188a15.4 15.4 0 0 0 1.152 2.91zm0 0" />
    <path fill="#A3DCD3" fill-rule="evenodd"
        d="m1040.23 1592.02 39.918 19.03-30.289 63.544-39.918-19.032 30.29-63.542" />
    <path fill="none" stroke="#231F20" stroke-miterlimit="2.613" stroke-width="70.148"
        d="m9272.945 12781.7 590.45.011v-937.024l-590.45-.01zm0 0"
        transform="matrix(.06761 .03223 .03233 -.06782 0 2160)" />
    <path fill="#FFF" fill-rule="evenodd" d="m1040.23 1592.02 39.918 19.03 5.832-12.222-42.832-12.918z" />
    <path fill="none" stroke="#231F20" stroke-miterlimit="2.613" stroke-width="5.2706"
        d="m1040.23 1592.02 39.918 19.03 5.832-12.222-42.832-12.918zm0 0" />
    <path fill="#F9EBD5" fill-rule="evenodd" d="m978.86 1655.742 90.43 43.113-19.43-24.261-39.919-19.032-31.082.18" />
    <path fill="none" stroke="#231F20" stroke-miterlimit="2.613" stroke-width="5.2706"
        d="m978.86 1655.742 90.43 43.113-19.43-24.261-39.919-19.032zm0 0" />
    <path fill="#A3DCD3" fill-rule="evenodd" d="m978.86 1655.742 90.43 43.113-63.31 132.793-90.43-43.113z" />
    <path fill="none" stroke="#231F20" stroke-miterlimit="2.613" stroke-width="70.449"
        d="m8860.945 11715.301 1331.64-.003.026-1966.469-1331.686-.02zm0 0"
        transform="matrix(.0679 .03237 .0322 -.06753 0 2160)" />
    <path fill="#FFF" fill-rule="evenodd"
        d="m908.563 1803.2 34.707 43.593 55.722-.48 6.988-14.665-90.43-43.113-3.491 7.332-3.496 7.332" />
    <path fill="none" stroke="#231F20" stroke-miterlimit="2.613" stroke-width="5.2706"
        d="m908.563 1803.2 34.707 43.593 55.722-.48 6.988-14.665-90.43-43.113-3.491 7.332zm0 0" />
    <path fill="#F9EBD5" fill-rule="evenodd" d="m941.355 1829.832 16.297 7.77-18.644 39.101-16.293-7.765z" />
    <path fill="none" stroke="#231F20" stroke-miterlimit="2.613" stroke-width="5.2706"
        d="m941.355 1829.832 16.297 7.77-18.644 39.101-16.293-7.765zm0 0" />
    <path fill="#F9EBD5" fill-rule="evenodd" d="m967.668 1846.078 17.996 1.402-3.367 43.188-17.996-1.402z" />
    <path fill="none" stroke="#231F20" stroke-miterlimit="2.613" stroke-width="5.2706"
        d="m967.668 1846.078 17.996 1.402-3.367 43.188-17.996-1.402zm0 0" />
    <path fill="#F9EBD5" fill-rule="evenodd" d="m927.746 1827.047-12.418-13.098-31.433 29.809 12.418 13.097z" />
    <path fill="none" stroke="#231F20" stroke-miterlimit="2.613" stroke-width="5.2706"
        d="m927.746 1827.047-12.418-13.098-31.433 29.809 12.418 13.097zm0 0" />
    <path fill="#F9EBD5" fill-rule="evenodd"
        d="M999.535 1741.027c31.945 22.297 52.836 59.317 52.836 101.22 0 39.421-18.492 74.523-47.262 97.108v86.286c54.97-29.028 92.442-86.754 92.442-153.243 0-68.707-40.02-128.062-98.016-156.046z" />
    <path fill="none" stroke="#231F20" stroke-miterlimit="2.613" stroke-width="5.2706"
        d="M999.535 1741.027c31.945 22.297 52.836 59.317 52.836 101.22 0 39.421-18.492 74.523-47.262 97.108v86.286c54.97-29.028 92.442-86.754 92.442-153.243 0-68.707-40.02-128.062-98.016-156.046zm0 0" />
    <path fill="#F9EBD5" fill-rule="evenodd" d="M872.008 1930.277h140.273v26.977H872.008z" />
    <path fill="none" stroke="#231F20" stroke-miterlimit="2.613" stroke-width="5.2706"
        d="M872.008 1930.277h140.273v26.977H872.008zm0 0" />
    <path fill="#A3DCD3" fill-rule="evenodd" d="M872.008 2013.367h140.273v-56.113H872.008z" />
    <path fill="none" stroke="#231F20" stroke-miterlimit="2.613" stroke-width="52.663"
        d="M1467.515 8713.02v1401.678h561.587V8713.02zm0 0" transform="matrix(0 -.09992 .10008 0 0 2160)" />
    <path fill="#F9EBD5" fill-rule="evenodd" d="M856.898 2013.367h170.493l12.21 35.61h-194.91z" />
    <path fill="none" stroke="#231F20" stroke-miterlimit="2.613" stroke-width="5.2706"
        d="M856.898 2013.367h170.493l12.21 35.61h-194.91zm0 0" />
    <path fill="#FFF" fill-rule="evenodd" d="m875.797 1897 136.332 33.012 2.281-9.41-136.336-33.012z" />
    <path fill="none" stroke="#231F20" stroke-miterlimit="2.613" stroke-width="63.733"
        d="m9513.19-5583.196 1690.723-.046-.003-117.03H9513.178zm0 0"
        transform="matrix(.08064 .01953 -.01946 .08037 0 2160)" />
    <path fill="#FFF" fill-rule="evenodd"
        d="M1008.328 1707.309c-11.625 0-21.05 9.425-21.05 21.054 0 11.63 9.425 21.051 21.05 21.051 11.633 0 21.063-9.422 21.063-21.05 0-11.63-9.43-21.055-21.063-21.055" />
    <path fill="none" stroke="#231F20" stroke-miterlimit="2.613" stroke-width="5.2706"
        d="M1008.328 1707.309c-11.625 0-21.05 9.425-21.05 21.054 0 11.63 9.425 21.051 21.05 21.051 11.633 0 21.063-9.422 21.063-21.05 0-11.63-9.43-21.055-21.063-21.055zm0 0" />
    <path fill="#b7b2ea" fill-rule="evenodd"
        d="m2945.469 1700.11 203.883 59.777-10.18 34.718-10.184 34.715c-83.398-.718-151.718-20.175-203.879-59.777l20.36-69.434" />
    <path fill="none" stroke="#231F20" stroke-miterlimit="2.613" stroke-width="43.105"
        d="m33448.689 15770.892 2634.91.018.015-449.315-.026-449.176c-994.97-282.8-1875.99-289.619-2634.91-.018zm0 0"
        transform="matrix(.07738 .02269 .02266 -.07728 0 2160)" />
    <path fill="#b7b2ea" fill-rule="evenodd" d="m3091.922 1639.133 102.027 114.906-180.07 29.352-102.027-114.907z" />
    <path fill="none" stroke="#231F20" stroke-miterlimit="2.613" stroke-width="41.358"
        d="m34459.9 13764.483 1463.304-1084.969-2009.301-790.117-1463.294 1084.923zm0 0"
        transform="matrix(.08272 .01767 .01753 -.08208 0 2160)" />
    <path fill="none" stroke="#231F20" stroke-miterlimit="2.613" stroke-width="3.4713"
        d="m3055.969 1700.648-123.88-10.203-21.237 46.953" />
    <path fill="#FFF" fill-rule="evenodd"
        d="M2910.54 1734.906a4.926 4.926 0 0 0-6.118 3.348 4.924 4.924 0 0 0 3.34 6.121 4.923 4.923 0 0 0 6.117-3.348 4.932 4.932 0 0 0-3.34-6.12" />
    <path fill="none" stroke="#231F20" stroke-miterlimit="2.613" stroke-width="3.4713"
        d="M2910.54 1734.906a4.926 4.926 0 0 0-6.118 3.348 4.924 4.924 0 0 0 3.34 6.121 4.923 4.923 0 0 0 6.117-3.348 4.932 4.932 0 0 0-3.34-6.12zm0 0" />
    <path fill="#FFF" fill-rule="evenodd"
        d="M3057.469 1698.18a2.517 2.517 0 0 0-3.13 1.715 2.52 2.52 0 0 0 1.712 3.132 2.52 2.52 0 0 0 3.129-1.715 2.524 2.524 0 0 0-1.711-3.132" />
    <path fill="none" stroke="#231F20" stroke-miterlimit="2.613" stroke-width="3.4713"
        d="M3057.469 1698.18a2.517 2.517 0 0 0-3.13 1.715 2.52 2.52 0 0 0 1.712 3.132 2.52 2.52 0 0 0 3.129-1.715 2.524 2.524 0 0 0-1.711-3.132zm0 0" />
    <path fill="#00b26d" fill-rule="evenodd"
        d="M2189.54 1937.531c39.108-33.597 91.44-34.703 100.991 24.336 3.23 19.973 1.348 43.934-6.453 65.649-13.34 37.074-43.957 67.597-95.976 60.546-26.012 3.528-46.68-2.343-62.5-13.726-7.91-5.691-14.622-12.762-20.18-20.727-5.55-7.964-9.774-16.898-13.3-26.093-27.513-71.61 17.917-153.258 97.417-89.985" />
    <path fill="none" stroke="#231F20" stroke-miterlimit="2.613" stroke-width="3.2567"
        d="M2189.54 1937.531c39.108-33.597 91.44-34.703 100.991 24.336 3.23 19.973 1.348 43.934-6.453 65.649-13.34 37.074-43.957 67.597-95.976 60.546-26.012 3.528-46.68-2.343-62.5-13.726-7.91-5.691-14.622-12.762-20.18-20.727-5.55-7.964-9.774-16.898-13.3-26.093-27.513-71.61 17.917-153.258 97.417-89.985zm0 0" />
    <path fill="none" stroke="#231F20" stroke-miterlimit="2.613" stroke-width="3.2567"
        d="M2162.34 1931.43c15.512 12.523 31.02 11.035 46.531 0" />
    <path fill="#828D64" fill-rule="evenodd"
        d="M2182.8 1939.906c-12.19-15.34-23.75-30.68-35.94-46.015-3.098-3.907-9.391-4.805-10.04-7.438-1.86-7.484 9.22-12.078 14.88-8.465 2.831 1.809 1.222 6.446 4.35 10.633 12.302 16.45 23.821 32.902 36.122 49.352-3.39.644-5.992 1.289-9.371 1.933" />
    <path fill="none" stroke="#231F20" stroke-miterlimit="2.613" stroke-width="3.2563"
        d="M2182.8 1939.906c-12.19-15.34-23.75-30.68-35.94-46.015-3.098-3.907-9.391-4.805-10.04-7.438-1.86-7.484 9.22-12.078 14.88-8.465 2.831 1.809 1.222 6.446 4.35 10.633 12.302 16.45 23.821 32.902 36.122 49.352-3.39.644-5.992 1.289-9.371 1.933zm0 0" />
    <path fill="#ACDCAB" fill-rule="evenodd"
        d="M2246.121 1858.578c-44.02-9.176-63.012 14.656-66.52 58.899 40.86 13.253 64.348-25.657 66.52-58.899" />
    <path fill="none" stroke="#231F20" stroke-miterlimit="2.613" stroke-width="3.2565"
        d="M2246.121 1858.578c-44.02-9.176-63.012 14.656-66.52 58.899 40.86 13.253 64.348-25.657 66.52-58.899zm0 0" />
    <path fill="none" stroke="#231F20" stroke-miterlimit="2.613" stroke-width="3.2567"
        d="m2213.21 1887.34-35.19 31.152" />
    <path fill="#FFF" fill-rule="evenodd"
        d="M303.652 1714.426c-57.511 0-104.132 46.62-104.132 104.133 0 57.507 46.62 104.129 104.132 104.129 9.157 0 18.032-1.184 26.493-3.403 10.742 33.63 42.964 40.094 82.816 36.914-24.684-10.41-44.414-24.234-51.672-50.91 28.027-18.66 46.496-50.539 46.496-86.73 0-57.512-46.62-104.133-104.133-104.133" />
    <path fill="none" stroke="#231F20" stroke-miterlimit="2.613" stroke-width="2.6151"
        d="M303.652 1714.426c-57.511 0-104.132 46.62-104.132 104.133 0 57.507 46.62 104.129 104.132 104.129 9.157 0 18.032-1.184 26.493-3.403 10.742 33.63 42.964 40.094 82.816 36.914-24.684-10.41-44.414-24.234-51.672-50.91 28.027-18.66 46.496-50.539 46.496-86.73 0-57.512-46.62-104.133-104.133-104.133zm0 0" />
    <path fill="#F9EE62" fill-rule="evenodd"
        d="M301.895 1764.242a39.295 39.295 0 0 0-15.332 3.094 39.5 39.5 0 0 0-20.958 20.96 39.2 39.2 0 0 0-3.097 15.333c0 3.922.574 7.707 1.64 11.281 4.309 14.445 20.797 20.586 20.797 31.192v20.73h33.903v-20.734c0-11.313 15.82-14.524 20.797-31.188a39.39 39.39 0 0 0 1.636-11.281c0-21.754-17.633-39.387-39.386-39.387" />
    <path fill="none" stroke="#231F20" stroke-miterlimit="2.613" stroke-width="2.6151"
        d="M301.895 1764.242a39.295 39.295 0 0 0-15.332 3.094 39.5 39.5 0 0 0-20.958 20.96 39.2 39.2 0 0 0-3.097 15.333c0 3.922.574 7.707 1.64 11.281 4.309 14.445 20.797 20.586 20.797 31.192v20.73h33.903v-20.734c0-11.313 15.82-14.524 20.797-31.188a39.39 39.39 0 0 0 1.636-11.281c0-21.754-17.633-39.387-39.386-39.387zm0 0" />
    <path fill="none" stroke="#231F20" stroke-miterlimit="2.613" stroke-width="2.6151"
        d="M332.164 1802.79c0-8.454-3.43-16.11-8.969-21.65-5.539-5.538-13.191-8.964-21.644-8.964" />
    <path fill="none" stroke="#231F20" stroke-miterlimit="2.613" stroke-width="26.038" d="M-3392.963 3045.346h449.456"
        transform="matrix(0 .09957 .10043 0 0 2160)" />
    <path fill="none" stroke="#231F20" stroke-miterlimit="2.613" stroke-width="2.6151"
        d="M305.922 1825.023c.09-3.218-.711-7.253 1.601-9.566a5.632 5.632 0 0 1 7.965 7.965c-2.312 2.312-6.347 1.512-9.566 1.601zm-8.051 0c-.094-3.218.711-7.253-1.605-9.566a5.632 5.632 0 0 0-7.965 7.965c2.316 2.312 6.347 1.512 9.57 1.601zm0 0" />
    <path fill="none" stroke="#231F20" stroke-miterlimit="2.613" stroke-width="26.038" d="M-3392.963-2966.432h449.456"
        transform="matrix(0 .09957 -.10043 0 0 2160)" />
    <path fill="none" stroke="#231F20" stroke-miterlimit="2.613" stroke-width="2.6151" d="M298.078 1825.043h8.168" />
    <path fill="none" stroke="#231F20" stroke-miterlimit="2.613" stroke-width="26.147" d="M-2723.462 2907.59v222.167"
        transform="matrix(0 .09999 .1 0 0 2160)" />
    <path fill="none" stroke="#231F20" stroke-miterlimit="2.613" stroke-width="26.105" d="M-2653.571 2921.42v184.48"
        transform="matrix(0 .09982 .10018 0 0 2160)" />
    <path fill="#78C0DA" fill-rule="evenodd" d="M285.191 1873.148h33.407v7.278H285.19v-7.278" />
    <path fill="none" stroke="#231F20" stroke-miterlimit="2.613" stroke-width="26.21"
        d="M2845.37 2875.137h333.296v-72.941H2845.37zm0 0" transform="matrix(.10023 0 0 -.09977 0 2160)" />
    <path fill="none" stroke="#231F20" stroke-miterlimit="2.613" stroke-width="2.6151"
        d="M302.195 1737.703v13.059m33.039-4.207-6.527 11.308m30.715 12.879-11.309 6.528m-91.832 53.02-11.308 6.526m123.3-33.039h-13.058m-106.035 0h-13.063m123.305 33.039-11.309-6.527m-91.832-53.019-11.308-6.528m30.715-12.879-6.532-11.308" />
    <path fill="#b7b2ea" fill-rule="evenodd"
        d="M1654.25 1585.695c-14.672 0-26.57 11.895-26.57 26.57 0 14.672 11.898 26.57 26.57 26.57 14.68 0 26.57-11.898 26.57-26.57 0-14.675-11.89-26.57-26.57-26.57" />
    <path fill="none" stroke="#231F20" stroke-miterlimit="2.613" stroke-width="2.2474"
        d="M1654.25 1585.695c-14.672 0-26.57 11.895-26.57 26.57 0 14.672 11.898 26.57 26.57 26.57 14.68 0 26.57-11.898 26.57-26.57 0-14.675-11.89-26.57-26.57-26.57zm0 0" />
    <path fill="#F5F360" fill-rule="evenodd"
        d="M1714.54 1533.004c-14.68 0-26.571 11.894-26.571 26.566 0 14.676 11.89 26.57 26.57 26.57 14.672 0 26.57-11.894 26.57-26.57 0-14.672-11.898-26.566-26.57-26.566" />
    <path fill="none" stroke="#231F20" stroke-miterlimit="2.613" stroke-width="2.2474"
        d="M1714.54 1533.004c-14.68 0-26.571 11.894-26.571 26.566 0 14.676 11.89 26.57 26.57 26.57 14.672 0 26.57-11.894 26.57-26.57 0-14.672-11.898-26.566-26.57-26.566zm0 0" />
    <path fill="#00b26d" fill-rule="evenodd"
        d="M1719 1637.05c-14.672 0-26.57 11.895-26.57 26.567 0 14.676 11.898 26.57 26.57 26.57 14.68 0 26.57-11.894 26.57-26.57 0-14.672-11.89-26.566-26.57-26.566" />
    <path fill="none" stroke="#231F20" stroke-miterlimit="2.613" stroke-width="2.2474"
        d="M1719 1637.05c-14.672 0-26.57 11.895-26.57 26.567 0 14.676 11.898 26.57 26.57 26.57 14.68 0 26.57-11.894 26.57-26.57 0-14.672-11.89-26.566-26.57-26.566zm0 0" />
    <path fill="none" stroke="#231F20" stroke-miterlimit="2.613" stroke-width="2.2475"
        d="m1675.46 1595.52 21.438-17.864" />
    <path fill="none" stroke="#231F20" stroke-miterlimit="2.613" stroke-width="2.2473"
        d="m1698.238 1647.766-24.039-16.97" />
    <path fill="none" stroke="#231F20" stroke-miterlimit="2.613" stroke-width="28.622"
        d="M-11593.991-422.493c92.605-71.775 160.804-159.15 164.775-261.814 15.531-398.738-673.503-463.574-705.072-777.916-10.51-104.702 65.59-212.03 241.888-320.966 271.783-167.97 636.21-370.397 291.285-763.255"
        transform="matrix(-.10035 0 0 .09965 0 2160)" />
    <path fill="none" stroke="#231F20" stroke-miterlimit="2.613" stroke-width="28.622"
        d="M11970.097-422.493c92.605-71.775 160.921-159.15 164.891-261.814 15.493-398.738-673.502-463.574-705.07-777.916-10.51-104.702 65.59-212.03 241.77-320.966 271.9-167.97 636.328-370.397 291.324-763.255"
        transform="matrix(.10035 0 0 .09965 0 2160)" />
    <path fill="none" stroke="#231F20" stroke-miterlimit="2.613" stroke-width="28.513" d="M-2375.514 11530.306v575.797"
        transform="matrix(0 .09996 .10004 0 0 2160)" />
    <path fill="none" stroke="#231F20" stroke-miterlimit="2.613" stroke-width="2.8520000000000003"
        d="M1150.4594 1939.863h63.7818" />
    <path fill="none" stroke="#231F20" stroke-miterlimit="2.613" stroke-width="28.434" d="M-2034.917 11556.92v456.988"
        transform="matrix(0 .09968 .10032 0 0 2160)" />
    <path fill="none" stroke="#231F20" stroke-miterlimit="2.613" stroke-width="28.513" d="M1317.416 11530.306v575.797"
        transform="matrix(0 -.09996 .10004 0 0 2160)" />
    <path fill="none" stroke="#231F20" stroke-miterlimit="2.613" stroke-width="28.534" d="M11456.704-1490.587h722.687"
        transform="matrix(.10004 0 0 .09996 0 2160)" />
    <path fill="none" stroke="#231F20" stroke-miterlimit="2.613" stroke-width="28.56" d="M1661.02 11570.706v532.798"
        transform="matrix(0 -.10012 .09988 0 0 2160)" />
    <path fill="none" stroke="#231F20" stroke-miterlimit="2.613" stroke-width="28.465" d="M11514.115-593.027h664.894"
        transform="matrix(.0998 0 0 .1002 0 2160)" />
    <path fill="none" stroke="#231F20" stroke-miterlimit="2.613" stroke-width="28.442" d="M11508.405-765.155h695.196"
        transform="matrix(.09972 0 0 .10028 0 2160)" />
    <path fill="none" stroke="#231F20" stroke-miterlimit="2.613" stroke-width="28.569" d="M938.943 11595.01v490.892"
        transform="matrix(0 -.10015 .09985 0 0 2160)" />
    <path fill="#C0E5D4" fill-rule="evenodd"
        d="M689.375 1713.16c-42.488 30.957-111.621 86.27-53.531 96.059l115.582 19.48c41.691 7.028 33.836-30.57-19.871-109.215l15.824-93.89-42.05-7.09z" />
    <path fill="none" stroke="#231F20" stroke-miterlimit="2.613" stroke-width="3.8165"
        d="M689.375 1713.16c-42.488 30.957-111.621 86.27-53.531 96.059l115.582 19.48c41.691 7.028 33.836-30.57-19.871-109.215l15.824-93.89-42.05-7.09zm0 0" />
    <path fill="#C0E5D4" fill-rule="evenodd"
        d="M727.95 1612.586c-12.548-2.117-23.29-.441-23.997 3.742-.703 4.18 8.899 9.285 21.442 11.399 12.546 2.117 23.289.437 23.992-3.743.707-4.18-8.895-9.285-21.438-11.398" />
    <path fill="none" stroke="#231F20" stroke-miterlimit="2.613" stroke-width="3.8165"
        d="M727.95 1612.586c-12.548-2.117-23.29-.441-23.997 3.742-.703 4.18 8.899 9.285 21.442 11.399 12.546 2.117 23.289.437 23.992-3.743.707-4.18-8.895-9.285-21.438-11.398zm0 0" />
    <path fill="#00b26d" fill-rule="evenodd" d="m526.645 1642.52 254.687 42.925-1.312 7.778-254.684-42.926z" />
    <path fill="none" stroke="#231F20" stroke-miterlimit="2.613" stroke-width="3.8166"
        d="m526.645 1642.52 254.687 42.925-1.312 7.778-254.684-42.926zm0 0" />
    <path fill="#86d77d" fill-rule="evenodd"
        d="M720.848 1554.895a5.398 5.398 0 1 0-1.8 10.645 5.398 5.398 0 0 0 1.8-10.645" />
    <path fill="none" stroke="#231F20" stroke-miterlimit="2.613" stroke-width="3.8166"
        d="M720.848 1554.895a5.398 5.398 0 1 0-1.8 10.645 5.398 5.398 0 0 0 1.8-10.645zm0 0" />
    <path fill="#86d77d" fill-rule="evenodd"
        d="M747.648 1556.906c-6.437-1.082-12.535 3.254-13.62 9.692-1.083 6.437 3.253 12.53 9.69 13.617 6.438 1.086 12.536-3.254 13.618-9.692 1.086-6.433-3.25-12.53-9.688-13.617" />
    <path fill="none" stroke="#231F20" stroke-miterlimit="2.613" stroke-width="3.8174"
        d="M747.648 1556.906c-6.437-1.082-12.535 3.254-13.62 9.692-1.083 6.437 3.253 12.53 9.69 13.617 6.438 1.086 12.536-3.254 13.618-9.692 1.086-6.433-3.25-12.53-9.688-13.617zm0 0" />
    <path fill="#86d77d" fill-rule="evenodd"
        d="M723.48 1583.156a7.15 7.15 0 1 0-2.375 14.098 7.152 7.152 0 0 0 8.239-5.86 7.15 7.15 0 0 0-5.864-8.238" />
    <path fill="none" stroke="#231F20" stroke-miterlimit="2.613" stroke-width="3.817"
        d="M723.48 1583.156a7.15 7.15 0 1 0-2.375 14.098 7.152 7.152 0 0 0 8.239-5.86 7.15 7.15 0 0 0-5.864-8.238zm0 0" />
    <path fill="#b7b2ea" fill-rule="evenodd"
        d="M671.184 1945.371c-37.286-6.285-72.602 18.848-78.883 56.129-3.992 23.684 4.695 46.574 21.12 61.73l73.7 12.422c20.488-8.937 36.2-27.715 40.192-51.398 6.285-37.281-18.848-72.602-56.13-78.883" />
    <path fill="none" stroke="#231F20" stroke-miterlimit="2.613" stroke-width="3.8169"
        d="M671.184 1945.371c-37.286-6.285-72.602 18.848-78.883 56.129-3.992 23.684 4.695 46.574 21.12 61.73l73.7 12.422c20.488-8.937 36.2-27.715 40.192-51.398 6.285-37.281-18.848-72.602-56.13-78.883zm0 0" />
    <path fill="#F9EBD5" fill-rule="evenodd"
        d="M654.645 1903.523c-2.137 12.668 6.406 24.668 19.074 26.805s24.672-6.406 26.804-19.074c2.356-13.969-14.683-22.102-15.628-47.23-10.497 7.464-27.899 25.53-30.25 39.5" />
    <path fill="none" stroke="#231F20" stroke-miterlimit="2.613" stroke-width="3.8169"
        d="M654.645 1903.523c-2.137 12.668 6.406 24.668 19.074 26.805s24.672-6.406 26.804-19.074c2.356-13.969-14.683-22.102-15.628-47.23-10.497 7.464-27.899 25.53-30.25 39.5zm0 0" />
    <path fill="none" stroke="#231F20" stroke-miterlimit="2.613" stroke-width="3.8168"
        d="M679.426 1920.715c-33.313 64.847 3.172 85.922-19.188 113.867" />
    <path fill="none" stroke="#231F20" stroke-miterlimit="2.613" stroke-width="43.933"
        d="M6442.215 2920.482c528.786 200.583 946.723-162.974 1586.417-.005"
        transform="matrix(.08548 .0144 .01444 -.08567 0 2160)" />
    <path fill="#b7b2ea" fill-rule="evenodd"
        d="m629.766 1921.629 88.328 14.887-3.067 18.203-88.332-14.887 3.07-18.203" />
    <path fill="none" stroke="#231F20" stroke-miterlimit="2.613" stroke-width="44.042"
        d="m6689.844 3920.06 1030.69-.003.017-213.008-1030.69.003zm0 0"
        transform="matrix(.0857 .01444 .0144 -.08546 0 2160)" />
    <path fill="#00b26d" fill-rule="evenodd"
        d="m531.688 1552.367 10.675 1.797-79.66 472.664-10.676-1.797 79.66-472.664" />
    <path fill="none" stroke="#231F20" stroke-miterlimit="2.613" stroke-width="3.8166"
        d="m531.688 1552.367 10.675 1.797-79.66 472.664-10.676-1.797zm0 0" />
    <path fill="#00b26d" fill-rule="evenodd" d="m429.703 2021.27-1.8 10.675 55.324 9.325 1.796-10.676z" />
    <path fill="none" stroke="#231F20" stroke-miterlimit="2.613" stroke-width="44.536"
        d="m-2369.667-4675.198 123.216.018.002-654.65-123.21.027zm0 0"
        transform="matrix(-.0146 .08664 -.08451 -.01424 0 2160)" />
    <path fill="#00b26d" fill-rule="evenodd" d="m397.246 2037.758 1.8-10.676 419 70.617-1.8 10.676z" />
    <path fill="none" stroke="#231F20" stroke-miterlimit="2.613" stroke-width="44.066"
        d="m2145.545-4288.005 124.51-.017-.004-4905.715-124.511.017zm0 0"
        transform="matrix(.01445 -.08574 -.08541 -.0144 0 2160)" />
    <path fill="none" stroke="#231F20" stroke-miterlimit="2.613" stroke-width="3.8169"
        d="M720.86 1732.875a3.576 3.576 0 0 0-4.122 2.934 3.58 3.58 0 1 0 4.121-2.934zm0 0" />
    <path fill="none" stroke="#231F20" stroke-miterlimit="2.613" stroke-width="3.8167"
        d="M690.387 1732.926a5.241 5.241 0 1 0-1.742 10.337 5.241 5.241 0 0 0 1.742-10.337zm0 0" />
    <path fill="none" stroke="#231F20" stroke-miterlimit="2.613" stroke-width="3.8169"
        d="M711.25 1748.367a3.58 3.58 0 1 0-1.191 7.06 3.58 3.58 0 0 0 1.191-7.06zm0 0" />
    <path fill="#00b26d" fill-rule="evenodd"
        d="M647.543 1746.195c-30.941 27.356-52.121 56.211-11.7 63.024l115.583 19.48c33.05 5.57 34.965-16.902 7.582-65.637-48.551 8.711-72.988-13.437-111.465-16.867" />
    <path fill="none" stroke="#231F20" stroke-miterlimit="2.613" stroke-width="3.8171"
        d="M647.543 1746.195c-30.941 27.356-52.121 56.211-11.7 63.024l115.583 19.48c33.05 5.57 34.965-16.902 7.582-65.637-48.551 8.711-72.988-13.437-111.465-16.867zm0 0" />
    <path fill="#C8E2D8" fill-rule="evenodd"
        d="m1426.121 1559.273 77.75 134.66c7.84 13.579 3.14 31.102-10.43 38.942h-.011c-13.57 7.84-31.102 3.145-38.942-10.434l-77.738-134.66z" />
    <path fill="none" stroke="#231F20" stroke-miterlimit="2.613" stroke-width="3.1055"
        d="m1426.121 1559.273 77.75 134.66c7.84 13.579 3.14 31.102-10.43 38.942h-.011c-13.57 7.84-31.102 3.145-38.942-10.434l-77.738-134.66zm0 0" />
    <path fill="#C8E2D8" fill-rule="evenodd"
        d="m1369 1583.96 57.691-33.304a2.818 2.818 0 0 1 3.84 1.032l2.66 4.601a2.831 2.831 0 0 1-1.03 3.848l-57.68 33.3a2.834 2.834 0 0 1-3.852-1.03l-2.66-4.602a2.827 2.827 0 0 1 1.031-3.844" />
    <path fill="none" stroke="#231F20" stroke-miterlimit="2.613" stroke-width="3.1055"
        d="m1369 1583.96 57.691-33.304a2.818 2.818 0 0 1 3.84 1.032l2.66 4.601a2.831 2.831 0 0 1-1.03 3.848l-57.68 33.3a2.834 2.834 0 0 1-3.852-1.03l-2.66-4.602a2.827 2.827 0 0 1 1.031-3.844zm0 0" />
    <path fill="#C8E2D8" fill-rule="evenodd"
        d="m1335.16 1611.79 77.738 134.663c7.84 13.578 3.153 31.102-10.43 38.942-13.577 7.84-31.097 3.144-38.937-10.434l-77.75-134.664 49.38-28.508" />
    <path fill="none" stroke="#231F20" stroke-miterlimit="2.613" stroke-width="3.1055"
        d="m1335.16 1611.79 77.738 134.663c7.84 13.578 3.153 31.102-10.43 38.942-13.577 7.84-31.097 3.144-38.937-10.434l-77.75-134.664zm0 0" />
    <path fill="#C8E2D8" fill-rule="evenodd"
        d="m1278.04 1636.477 57.679-33.301a2.833 2.833 0 0 1 3.851 1.027l2.649 4.606a2.815 2.815 0 0 1-1.028 3.843l-57.68 33.305a2.818 2.818 0 0 1-3.84-1.031l-2.66-4.606a2.823 2.823 0 0 1 1.028-3.843" />
    <path fill="none" stroke="#231F20" stroke-miterlimit="2.613" stroke-width="3.1055"
        d="m1278.04 1636.477 57.679-33.301a2.833 2.833 0 0 1 3.851 1.027l2.649 4.606a2.815 2.815 0 0 1-1.028 3.843l-57.68 33.305a2.818 2.818 0 0 1-3.84-1.031l-2.66-4.606a2.823 2.823 0 0 1 1.028-3.843zm0 0" />
    <path fill="#C8E2D8" fill-rule="evenodd"
        d="m1244.191 1664.309 77.75 134.66c7.84 13.582 3.137 31.101-10.43 38.941-13.581 7.84-31.113 3.145-38.952-10.433l-77.739-134.66z" />
    <path fill="none" stroke="#231F20" stroke-miterlimit="2.613" stroke-width="3.1055"
        d="m1244.191 1664.309 77.75 134.66c7.84 13.582 3.137 31.101-10.43 38.941-13.581 7.84-31.113 3.145-38.952-10.433l-77.739-134.66zm0 0" />
    <path fill="#C8E2D8" fill-rule="evenodd"
        d="m1187.078 1688.996 57.684-33.305a2.819 2.819 0 0 1 3.84 1.032l2.66 4.605c.77 1.34.308 3.07-1.032 3.844l-57.68 33.3a2.833 2.833 0 0 1-3.85-1.027l-2.66-4.605a2.822 2.822 0 0 1 1.038-3.844" />
    <path fill="none" stroke="#231F20" stroke-miterlimit="2.613" stroke-width="3.1055"
        d="m1187.078 1688.996 57.684-33.305a2.819 2.819 0 0 1 3.84 1.032l2.66 4.605c.77 1.34.308 3.07-1.032 3.844l-57.68 33.3a2.833 2.833 0 0 1-3.85-1.027l-2.66-4.605a2.822 2.822 0 0 1 1.038-3.844zm0 0" />
    <path fill="#F9EBD5" fill-rule="evenodd"
        d="m1163.398 1740.602 319.82-184.649 100.423 173.938-319.82 184.648zm15.973 5.043 300.23-173.332 88.06 152.535-300.22 173.332z" />
    <path fill="none" stroke="#231F20" stroke-miterlimit="2.613" stroke-width="3.1055"
        d="m1163.398 1740.602 319.82-184.649 100.423 173.938-319.82 184.648zm15.973 5.043 300.23-173.332 88.06 152.535-300.22 173.332zm0 0" />
    <path fill="#00b26d" fill-rule="evenodd"
        d="m1284.02 1733.285-49.38 28.504 37.919 65.688c7.84 13.578 25.37 18.273 38.953 10.433 13.566-7.84 18.27-25.363 10.43-38.941z" />
    <path fill="none" stroke="#231F20" stroke-miterlimit="2.613" stroke-width="3.1055"
        d="m1284.02 1733.285-49.38 28.504 37.919 65.688c7.84 13.578 25.37 18.273 38.953 10.433 13.566-7.84 18.27-25.363 10.43-38.941zm0 0" />
    <path fill="#00b26d" fill-rule="evenodd"
        d="m1352.121 1755.203 11.41 19.758c7.84 13.574 25.36 18.27 38.938 10.434 13.582-7.84 18.27-25.364 10.43-38.942l-11.399-19.758z" />
    <path fill="none" stroke="#231F20" stroke-miterlimit="2.613" stroke-width="3.1055"
        d="m1352.121 1755.203 11.41 19.758c7.84 13.574 25.36 18.27 38.938 10.434 13.582-7.84 18.27-25.364 10.43-38.942l-11.399-19.758zm0 0" />
    <path fill="#00b26d" fill-rule="evenodd"
        d="m1426.91 1674.664 27.578 47.777c7.84 13.579 25.371 18.274 38.942 10.434 13.582-7.84 18.28-25.363 10.441-38.941l-27.582-47.778z" />
    <path fill="none" stroke="#231F20" stroke-miterlimit="2.613" stroke-width="3.1055"
        d="m1426.91 1674.664 27.578 47.777c7.84 13.579 25.371 18.274 38.942 10.434 13.582-7.84 18.28-25.363 10.441-38.941l-27.582-47.778zm0 0" />
    <path fill="#C0E5D4" fill-rule="evenodd"
        d="M2606.379 1609.586a158 158 0 0 1 4.293 3.285l138.18 109.242c11.136 8.813 2.84 28.196-9.461 35.301l-141.762 81.844c-12.309 7.11-33.25 4.605-35.309-9.457l-25.511-174.281c-.27-1.793-.508-3.582-.7-5.364l-36.328-62.926 70.27-40.57z" />
    <path fill="none" stroke="#231F20" stroke-miterlimit="2.613" stroke-width="3.0312"
        d="M2606.379 1609.586a158 158 0 0 1 4.293 3.285l138.18 109.242c11.136 8.813 2.84 28.196-9.461 35.301l-141.762 81.844c-12.309 7.11-33.25 4.605-35.309-9.457l-25.511-174.281c-.27-1.793-.508-3.582-.7-5.364l-36.328-62.926 70.27-40.57zm0 0" />
    <path fill="#F9EBD5" fill-rule="evenodd"
        d="M2535.121 1570.125c-21.043 12.086-41.23 16.355-45.172 9.531-3.937-6.824 9.852-22.172 30.84-34.355 21.04-12.082 41.23-16.352 45.172-9.528 3.937 6.825-9.852 22.168-30.84 34.352" />
    <path fill="none" stroke="#231F20" stroke-miterlimit="2.613" stroke-width="41.32"
        d="M34089.101-10315.924c-332.112.838-600.575 87.935-600.611 195.44.002 107.36 268.501 194.567 600.614 195.327 332.212-.773 600.695-87.943 600.666-195.35.036-107.505-268.456-194.592-600.669-195.417zm0 0"
        transform="matrix(.06327 -.03653 -.03668 -.06353 0 2160)" />
    <path fill="#F9EBD5" fill-rule="evenodd"
        d="M2565.59 1542.695c1.2-2.726 1.398-5.082.398-6.867l5.75 9.953.063.11c1.469 2.625.36 6.492-2.762 10.945-5.008 7.168-15.2 15.86-28.11 23.355-12.94 7.434-25.558 11.91-34.28 12.664-5.41.473-9.32-.496-10.86-3.082l-.027-.054-.032-.055-5.75-9.953c1.051 1.758 3.192 2.766 6.149 3.086 1.871.2 4.07.125 6.52-.207 8.601-1.168 20.402-5.531 32.472-12.465 12.04-6.988 21.719-15.023 27.027-21.89 1.524-1.958 2.68-3.82 3.442-5.54" />
    <path fill="none" stroke="#231F20" stroke-miterlimit="2.613" stroke-width="41.32"
        d="M34637.997-10199.697c32.989 23.89 51.379 50.394 51.815 78.306l-.03-156.72.042-.886-.024-.786c-.508-41.029-40.2-79.143-107.602-110.423-108.495-50.51-288.698-83.708-493.108-84.11-204.314.404-384.612 33.609-493.007 84.13-67.368 31.296-107.09 69.386-107.59 110.38l.024.786-.016.931.004 156.674c.307-27.908 18.785-54.397 51.792-78.296 20.697-15.098 47.23-29.186 78.582-41.987 110.051-44.894 279.638-73.784 470.222-74.226 190.708.409 360.281 29.327 470.283 74.237 31.434 12.793 57.94 26.883 78.613 41.99zm0 0"
        transform="matrix(.06327 -.03653 -.03668 -.06353 0 2160)" />
    <path fill="#F9EBD5" fill-rule="evenodd"
        d="M2565.96 1535.773c-1.94-3.355-7.8-4.027-15.76-2.414-8.231 1.676-18.712 5.797-29.41 11.942-10.669 6.195-19.481 13.21-25.052 19.504-5.379 6.086-7.726 11.496-5.789 14.851l.031.055.008.004c.684 1.144 1.832 1.973 3.364 2.496.117.039.226.074.34.11a4.5 4.5 0 0 1-.481-.352 2.97 2.97 0 0 1-.68-.828c-3.133-5.414 10.75-19.282 31.028-31.043 20.32-11.684 39.27-16.77 42.402-11.352.18.309.3.645.367 1.008.043.187.063.387.07.59.024-.117.051-.23.07-.348.321-1.594.173-3.004-.48-4.168-.008-.02-.02-.039-.027-.055" />
    <path fill="none" stroke="#231F20" stroke-miterlimit="2.613" stroke-width="41.384"
        d="M34635.51-10136.408c-.002 52.904-64.807 100.877-170.008 136.123-108.91 36.4-261.069 59.192-429.808 59.585-168.598-.427-320.813-23.176-429.697-59.586-105.297-35.216-170.006-83.188-170.004-136.092.006-.311.018-.503.023-.814l-.007-.12c.197-18.22 8.184-35.76 22.796-52.502a47.7 47.7 0 0 1 3.302-3.567c-1.413 2.355-2.408 4.9-3.311 7.39-1.674 4.785-2.487 9.565-2.478 14.487-.017 85.307 258.989 154.603 579.403 155.222 320.389-.598 579.367-69.916 579.384-155.223-.009-4.922-.798-9.701-2.522-14.497-.772-2.51-1.902-5-3.171-7.408 1.078 1.226 2.202 2.425 3.18 3.585 14.71 16.704 22.608 34.32 22.822 52.61.068.33.102.496.096.807zm0 0"
        transform="matrix(.06337 -.03659 -.03662 -.06343 0 2160)" />
    <path fill="#F9EBD5" fill-rule="evenodd"
        d="M2502.23 1494.594a6.076 6.076 0 0 0-2.23 8.297 6.078 6.078 0 0 0 8.3 2.222 6.075 6.075 0 0 0 2.22-8.297c-1.668-2.906-5.391-3.898-8.29-2.222" />
    <path fill="none" stroke="#231F20" stroke-miterlimit="2.613" stroke-width="3.031"
        d="M2502.23 1494.594a6.076 6.076 0 0 0-2.23 8.297 6.078 6.078 0 0 0 8.3 2.222 6.075 6.075 0 0 0 2.22-8.297c-1.668-2.906-5.391-3.898-8.29-2.222zm0 0" />
    <path fill="#F9EBD5" fill-rule="evenodd"
        d="M2490.871 1524.617a6.074 6.074 0 1 0 6.078 10.52 6.073 6.073 0 0 0 2.223-8.297 6.082 6.082 0 0 0-8.3-2.223" />
    <path fill="none" stroke="#231F20" stroke-miterlimit="2.613" stroke-width="3.031"
        d="M2490.871 1524.617a6.074 6.074 0 1 0 6.078 10.52 6.073 6.073 0 0 0 2.223-8.297 6.082 6.082 0 0 0-8.3-2.223zm0 0" />
    <path fill="#F9EBD5" fill-rule="evenodd"
        d="M2466.36 1493.137c-5.141 2.965-6.9 9.539-3.93 14.676 2.96 5.14 9.53 6.902 14.672 3.933 5.136-2.965 6.898-9.539 3.937-14.676-2.969-5.14-9.539-6.902-14.68-3.933" />
    <path fill="none" stroke="#231F20" stroke-miterlimit="2.613" stroke-width="3.0314"
        d="M2466.36 1493.137c-5.141 2.965-6.9 9.539-3.93 14.676 2.96 5.14 9.53 6.902 14.672 3.933 5.136-2.965 6.898-9.539 3.937-14.676-2.969-5.14-9.539-6.902-14.68-3.933zm0 0" />
    <path fill="#F9EBD5" fill-rule="evenodd"
        d="M2558.46 1631.723c-5.132 2.968-6.901 9.539-3.929 14.68 2.969 5.136 9.54 6.898 14.68 3.933 5.14-2.969 6.898-9.54 3.93-14.68-2.961-5.14-9.54-6.902-14.68-3.933" />
    <path fill="none" stroke="#231F20" stroke-miterlimit="2.613" stroke-width="3.0314"
        d="M2558.46 1631.723c-5.132 2.968-6.901 9.539-3.929 14.68 2.969 5.136 9.54 6.898 14.68 3.933 5.14-2.969 6.898-9.54 3.93-14.68-2.961-5.14-9.54-6.902-14.68-3.933zm0 0" />
    <path fill="#F9EBD5" fill-rule="evenodd"
        d="M2584.61 1616.336c-2.91 1.676-3.9 5.39-2.231 8.297 1.68 2.902 5.402 3.898 8.3 2.222a6.065 6.065 0 0 0 2.22-8.296c-1.669-2.903-5.387-3.899-8.29-2.223" />
    <path fill="none" stroke="#231F20" stroke-miterlimit="2.613" stroke-width="3.031"
        d="M2584.61 1616.336c-2.91 1.676-3.9 5.39-2.231 8.297 1.68 2.902 5.402 3.898 8.3 2.222a6.065 6.065 0 0 0 2.22-8.296c-1.669-2.903-5.387-3.899-8.29-2.223zm0 0" />
    <path fill="#F9EBD5" fill-rule="evenodd"
        d="m2552.91 1765.508 9.41 64.293c2.059 14.062 23 16.562 35.309 9.457l141.762-81.844c12.3-7.105 20.597-26.488 9.46-35.3l-52.203-41.266c-37.289 42.554-92.418 42.742-143.738 84.66" />
    <path fill="none" stroke="#231F20" stroke-miterlimit="2.613" stroke-width="3.031"
        d="m2552.91 1765.508 9.41 64.293c2.059 14.062 23 16.562 35.309 9.457l141.762-81.844c12.3-7.105 20.597-26.488 9.46-35.3l-52.203-41.266c-37.289 42.554-92.418 42.742-143.738 84.66zm0 0" />
    <path fill="#C0E5D4" fill-rule="evenodd"
        d="M2360.95 1817.86c-23.212 26.12-28.29 65.163-9.86 97.085 23.031 39.883 74.031 53.547 113.91 30.524 39.89-23.028 53.55-74.028 30.52-113.91-18.43-31.926-54.782-47.047-89.008-40.004l-62.012-107.418-45.57 26.304 62.02 107.418" />
    <path fill="none" stroke="#231F20" stroke-miterlimit="2.613" stroke-width="4.3108"
        d="M2360.95 1817.86c-23.212 26.12-28.29 65.163-9.86 97.085 23.031 39.883 74.031 53.547 113.91 30.524 39.89-23.028 53.55-74.028 30.52-113.91-18.43-31.926-54.782-47.047-89.008-40.004l-62.012-107.418-45.57 26.304zm0 0" />
    <path fill="none" stroke="#231F20" stroke-miterlimit="2.613" stroke-width="58.656"
        d="m10732.49 30696.429.032 167.162" transform="matrix(.03646 .06315 .06365 -.03675 0 2160)" />
    <path fill="none" stroke="#231F20" stroke-miterlimit="2.613" stroke-width="58.897"
        d="m10859.918 30745.885-.018 244.292" transform="matrix(.0366 .0634 .06339 -.0366 0 2160)" />
    <path fill="none" stroke="#231F20" stroke-miterlimit="2.613" stroke-width="59.01"
        d="m11010.007 30894.969-.025 155.24" transform="matrix(.03668 .06353 .06327 -.03653 0 2160)" />
    <path fill="none" stroke="#231F20" stroke-miterlimit="2.613" stroke-width="58.897"
        d="m11202.708 30745.914-.018 244.292" transform="matrix(.0366 .0634 .06339 -.0366 0 2160)" />
    <path fill="none" stroke="#231F20" stroke-miterlimit="2.613" stroke-width="59.01"
        d="m11352.09 30895.025-.006 155.166" transform="matrix(.03668 .06353 .06327 -.03653 0 2160)" />
    <path fill="none" stroke="#231F20" stroke-miterlimit="2.613" stroke-width="58.897"
        d="m11545.47 30745.896.056 244.312" transform="matrix(.0366 .0634 .06339 -.0366 0 2160)" />
    <path fill="none" stroke="#231F20" stroke-miterlimit="2.613" stroke-width="59.01" d="m11694.31 30895-.005 155.167"
        transform="matrix(.03668 .06353 .06327 -.03653 0 2160)" />
    <path fill="none" stroke="#231F20" stroke-miterlimit="2.613" stroke-width="58.897"
        d="m11888.307 30745.899-.137 244.299" transform="matrix(.0366 .0634 .06339 -.0366 0 2160)" />
    <path fill="#FFF" fill-rule="evenodd"
        d="M2310.46 1677.79c16.59-9.575 33.4-11.517 37.552-4.337 4.136 7.184-5.942 20.77-22.532 30.348s-33.402 11.52-37.55 4.34c-4.149-7.184 5.941-20.774 22.53-30.352" />
    <path fill="none" stroke="#231F20" stroke-miterlimit="2.613" stroke-width="58.688"
        d="M30732.308-10041.63c262.49.054 475.396-91.569 475.36-204.47.04-112.884-212.877-204.424-475.387-204.404-262.582 0-475.495 91.504-475.46 204.406-.031 113.002 212.858 204.496 475.487 204.469zm0 0"
        transform="matrix(.06318 -.03648 -.03673 -.06362 0 2160)" />
    <path fill="#b7b2ea" fill-rule="evenodd"
        d="M2198.129 1545.113c-9.719 5.61-13.05 18.035-7.438 27.75.27.465.547.918.848 1.352-6.418 9.683-7.25 22.555-1.05 33.3a31.524 31.524 0 0 0 19.21 14.731l-.058.367c-.032.16-.063.317-.082.477l-.028.219c-.031.164-.05.332-.082.496l-.027.25a4.5 4.5 0 0 0-.05.457l-.044.32c-.008.14-.02.281-.039.426v.027l-.027.344v.02l-.032.417-.02.286c0 .152-.01.304-.019.46l-.011.297c0 .145 0 .286-.008.43v1.121l.008.36.02.425.019.352.02.406.03.367.04.434.03.316c.02.164.04.328.052.493l.039.246.058.507.043.223c.028.184.059.367.09.555l.02.152c.039.203.078.406.12.606l.04.218c.039.196.078.39.12.582l.04.157c.039.195.09.39.14.582l.04.16c.05.191.097.379.148.57l.05.176c.06.207.122.414.18.625l.032.101c.07.227.14.45.219.672l.03.094c.071.219.15.434.22.645l.039.086c.07.214.152.43.242.64l.027.094c.094.23.184.46.281.687l.012.016c.09.23.188.465.3.7l.009.027.02.035c.1.226.198.453.312.676l.02.043c.109.222.218.449.34.671l.019.051c.12.223.23.445.347.664l.032.043c.12.235.25.469.39.7 8.692 15.062 27.918 20.253 43.012 11.656a20.31 20.31 0 0 0 12.598 6.75c.32 1 .75 1.98 1.3 2.925 3.418 5.926 10.239 8.668 16.57 7.188 4.75 4.45 12.02 5.48 17.95 2.062a15.163 15.163 0 0 0 7.57-12.71l.07-.04c7.25-4.187 9.73-13.457 5.551-20.71a15.12 15.12 0 0 0-7.601-6.536c1.949-5.433 1.59-11.66-1.52-17.054a20.18 20.18 0 0 0-4.37-5.266c8.038-9.879 9.6-24.074 2.858-35.758a31.474 31.474 0 0 0-10.398-10.863 31.6 31.6 0 0 0-4.129-13.14c-8.73-15.118-28.062-20.298-43.172-11.571-.66.383-1.3.785-1.918 1.203-5.722-9.394-17.93-12.55-27.511-7.02a20.17 20.17 0 0 0-7.7 7.915 20.234 20.234 0 0 0-14.441 2.265" />
    <path fill="none" stroke="#231F20" stroke-miterlimit="2.613" stroke-width="4.3112"
        d="M2198.129 1545.113c-9.719 5.61-13.05 18.035-7.438 27.75.27.465.547.918.848 1.352-6.418 9.683-7.25 22.555-1.05 33.3a31.524 31.524 0 0 0 19.21 14.731l-.058.367c-.032.16-.063.317-.082.477l-.028.219c-.031.164-.05.332-.082.496l-.027.25a4.5 4.5 0 0 0-.05.457l-.044.32c-.008.14-.02.281-.039.426v.027l-.027.344v.02l-.032.417-.02.286c0 .152-.01.304-.019.46l-.011.297c0 .145 0 .286-.008.43v1.121l.008.36.02.425.019.352.02.406.03.367.04.434.03.316c.02.164.04.328.052.493l.039.246.058.507.043.223c.028.184.059.367.09.555l.02.152c.039.203.078.406.12.606l.04.218c.039.196.078.39.12.582l.04.157c.039.195.09.39.14.582l.04.16c.05.191.097.379.148.57l.05.176c.06.207.122.414.18.625l.032.101c.07.227.14.45.219.672l.03.094c.071.219.15.434.22.645l.039.086c.07.214.152.43.242.64l.027.094c.094.23.184.46.281.687l.012.016c.09.23.188.465.3.7l.009.027.02.035c.1.226.198.453.312.676l.02.043c.109.222.218.449.34.671l.019.051c.12.223.23.445.347.664l.032.043c.12.235.25.469.39.7 8.692 15.062 27.918 20.253 43.012 11.656a20.31 20.31 0 0 0 12.598 6.75c.32 1 .75 1.98 1.3 2.925 3.418 5.926 10.239 8.668 16.57 7.188 4.75 4.45 12.02 5.48 17.95 2.062a15.163 15.163 0 0 0 7.57-12.71l.07-.04c7.25-4.187 9.73-13.457 5.551-20.71a15.12 15.12 0 0 0-7.601-6.536c1.949-5.433 1.59-11.66-1.52-17.054a20.18 20.18 0 0 0-4.37-5.266c8.038-9.879 9.6-24.074 2.858-35.758a31.474 31.474 0 0 0-10.398-10.863 31.6 31.6 0 0 0-4.129-13.14c-8.73-15.118-28.062-20.298-43.172-11.571-.66.383-1.3.785-1.918 1.203-5.722-9.394-17.93-12.55-27.511-7.02a20.17 20.17 0 0 0-7.7 7.915 20.234 20.234 0 0 0-14.441 2.265zm0 0" />
    <path fill="#86d77d" fill-rule="evenodd"
        d="M2244.012 1506.953a7.941 7.941 0 1 0 7.937 13.754c3.79-2.191 5.102-7.05 2.903-10.848-2.192-3.796-7.051-5.097-10.84-2.906" />
    <path fill="none" stroke="#231F20" stroke-miterlimit="2.613" stroke-width="4.3114"
        d="M2244.012 1506.953a7.941 7.941 0 1 0 7.937 13.754c3.79-2.191 5.102-7.05 2.903-10.848-2.192-3.796-7.051-5.097-10.84-2.906zm0 0" />
    <path fill="#037248" fill-rule="evenodd"
        d="M2227.27 1680.832c-2.59 1.496-3.47 4.809-1.98 7.398a5.421 5.421 0 0 0 7.401 1.98 5.412 5.412 0 0 0 1.98-7.398 5.425 5.425 0 0 0-7.401-1.98" />
    <path fill="none" stroke="#231F20" stroke-miterlimit="2.613" stroke-width="4.3114"
        d="M2227.27 1680.832c-2.59 1.496-3.47 4.809-1.98 7.398a5.421 5.421 0 0 0 7.401 1.98 5.412 5.412 0 0 0 1.98-7.398 5.425 5.425 0 0 0-7.401-1.98zm0 0" />
    <path fill="#86d77d" fill-rule="evenodd"
        d="M2166.441 1583.41a7.933 7.933 0 0 0-2.902 10.848 7.926 7.926 0 0 0 10.84 2.906 7.94 7.94 0 1 0-7.938-13.754" />
    <path fill="none" stroke="#231F20" stroke-miterlimit="2.613" stroke-width="4.3114"
        d="M2166.441 1583.41a7.933 7.933 0 0 0-2.902 10.848 7.926 7.926 0 0 0 10.84 2.906 7.94 7.94 0 1 0-7.938-13.754zm0 0" />
    <path fill="#86d77d" fill-rule="evenodd"
        d="M2297.719 1534.293a5.409 5.409 0 0 0-1.98 7.395 5.41 5.41 0 0 0 7.39 1.984 5.426 5.426 0 0 0 1.992-7.399 5.421 5.421 0 0 0-7.402-1.98" />
    <path fill="none" stroke="#231F20" stroke-miterlimit="2.613" stroke-width="4.3114"
        d="M2297.719 1534.293a5.409 5.409 0 0 0-1.98 7.395 5.41 5.41 0 0 0 7.39 1.984 5.426 5.426 0 0 0 1.992-7.399 5.421 5.421 0 0 0-7.402-1.98zm0 0" />
    <path fill="#037248" fill-rule="evenodd"
        d="M2497.54 1835.258c-48.49 26.234-95.38 18.836-146.669 79.293.07.133.149.262.219.394 23.031 39.883 74.031 53.547 113.91 30.524 38.66-22.32 52.691-70.922 32.54-110.211" />
    <path fill="none" stroke="#231F20" stroke-miterlimit="2.613" stroke-width="4.3108"
        d="M2497.54 1835.258c-48.49 26.234-95.38 18.836-146.669 79.293.07.133.149.262.219.394 23.031 39.883 74.031 53.547 113.91 30.524 38.66-22.32 52.691-70.922 32.54-110.211zm0 0" />
    <path fill="#464181" fill-rule="evenodd"
        d="m2856.89 1987.105-98.73-32.253-81-26.457v38.972l93.64 30.586 85.821 28.031.27-.039v-38.84" />
    <path fill="none" stroke="#231F20" stroke-miterlimit="2.613" stroke-width=".9802"
        d="m2856.89 1987.105-98.73-32.253-81-26.457v38.972l93.64 30.586 85.821 28.031.27-.039zm0 0" />
    <path fill="#037248" fill-rule="evenodd" d="m2765 1915.258-87.84-28.692v41.829l81 26.457 98.73 32.253v-41.832z" />
    <path fill="none" stroke="#231F20" stroke-miterlimit="2.613" stroke-width=".9802"
        d="m2765 1915.258-87.84-28.692v41.829l81 26.457 98.73 32.253v-41.832zm0 0" />
    <path fill="#E9E8E8" fill-rule="evenodd"
        d="m2916.559 1978.54-59.13 8.737-.538-.172v38.84l45.539-6.73 93.039-13.746v-38.586l-78.91 11.656" />
    <path fill="none" stroke="#231F20" stroke-miterlimit="2.613" stroke-width=".9802"
        d="m2916.559 1978.54-59.13 8.737-.538-.172v38.84l45.539-6.73 93.039-13.746v-38.586zm0 0" />
    <path fill="#E9E8E8" fill-rule="evenodd"
        d="m2910.54 1937.602-53.11 7.847-.54-.176v41.832l.54.172 59.129-8.738 78.91-11.656v-41.832l-84.93 12.55" />
    <path fill="none" stroke="#231F20" stroke-miterlimit="2.613" stroke-width=".9802"
        d="m2910.54 1937.602-53.11 7.847-.54-.176v41.832l.54.172 59.129-8.738 78.91-11.656v-41.832zm0 0" />
    <path fill="#00b26d" fill-rule="evenodd"
        d="m2995.469 1923.516-141.73-46.297-35.637-11.64-78.774 11.64-62.168 9.183-.34.051.34.113 87.84 28.692 91.89 30.015.54.176 53.11-7.847 84.929-12.551 3.242-.477z" />
    <path fill="none" stroke="#231F20" stroke-miterlimit="2.613" stroke-width=".9802"
        d="m2995.469 1923.516-141.73-46.297-35.637-11.64-78.774 11.64-62.168 9.183-.34.051.34.113 87.84 28.692 91.89 30.015.54.176 53.11-7.847 84.929-12.551 3.242-.477zm0 0" />
    <path fill="#D3D2D2" fill-rule="evenodd"
        d="m1764.738 1826.203 15.434-12.125 8.18-6.43-39.48-38.738-22.884 17.988 9.903 10.043z" />
    <path fill="none" stroke="#231F20" stroke-linecap="round" stroke-linejoin="round" stroke-miterlimit="2.613"
        stroke-width="1.6908"
        d="m1764.738 1826.203 15.434-12.125 8.18-6.43-39.48-38.738-22.884 17.988 9.903 10.043zm0 0" />
    <path fill="#D3D2D2" fill-rule="evenodd"
        d="m1831.93 1850.418-24.399 19.18 10.91 11.066 27.848 28.238 16.941-13.316 8.18-6.43z" />
    <path fill="none" stroke="#231F20" stroke-linecap="round" stroke-linejoin="round" stroke-miterlimit="2.613"
        stroke-width="1.6908"
        d="m1831.93 1850.418-24.399 19.18 10.91 11.066 27.848 28.238 16.941-13.316 8.18-6.43zm0 0" />
    <path fill="#231F20" fill-rule="evenodd"
        d="m1764.672 1826.262 2.726 16.55 23.122-18.18-.079-.472-2.261-16.441-23.442 18.484z" />
    <path fill="none" stroke="#231F20" stroke-linecap="round" stroke-linejoin="round" stroke-miterlimit="2.613"
        stroke-width="1.6908"
        d="m1764.672 1826.262 2.726 16.55 23.122-18.18-.079-.472-2.261-16.441-23.442 18.484zm0 0" />
    <path fill="#231F20" fill-rule="evenodd"
        d="m1846.21 1908.836 3.962 16.375 24.18-18.711-.082-.473-2.79-16.437-22.91 18.48z" />
    <path fill="none" stroke="#231F20" stroke-linecap="round" stroke-linejoin="round" stroke-miterlimit="2.613"
        stroke-width="1.6908" d="m1846.21 1908.836 3.962 16.375 24.18-18.711-.082-.473-2.79-16.437-22.91 18.48zm0 0" />
    <path fill="#BAB645" fill-rule="evenodd"
        d="m1702.512 1893.805 64.886-50.993-2.726-16.55-.031-.164-28.75-29.157-71.29 56.028c-7.101 5.586-14.023 13.207-20.742 22.855-4.187 6.012-6.91 13.156-8.14 21.473-1.258 8.289-.82 16.039 1.25 23.254 2.07 7.21 6.36 14.867 12.832 22.941a291 291 0 0 0 4.719 5.746l35.62-30.136a21.45 21.45 0 0 1-.242-5.055c.532-7.281 4.73-14.05 12.614-20.242" />
    <path fill="none" stroke="#231F20" stroke-linecap="round" stroke-linejoin="round" stroke-miterlimit="2.613"
        stroke-width="1.6908"
        d="m1702.512 1893.805 64.886-50.993-2.726-16.55-.031-.164-28.75-29.157-71.29 56.028c-7.101 5.586-14.023 13.207-20.742 22.855-4.187 6.012-6.91 13.156-8.14 21.473-1.258 8.289-.82 16.039 1.25 23.254 2.07 7.21 6.36 14.867 12.832 22.941a291 291 0 0 0 4.719 5.746l35.62-30.136a21.45 21.45 0 0 1-.242-5.055c.532-7.281 4.73-14.05 12.614-20.242m0 0" />
    <path fill="#037248" fill-rule="evenodd"
        d="M1722.23 1945.95c-8.289-.403-15.878-3.977-22.718-10.692-5.332-5.227-8.453-10.613-9.371-16.156l-35.621 30.136c4.851 5.758 9.652 10.977 14.41 15.649 10.879 10.676 21.84 18.574 32.82 23.691 7.89 3.645 17.2 5.758 27.988 6.281 10.782.528 21.153-1.023 31.153-4.668 9.96-3.617 19.238-8.789 27.757-15.484 9.364-7.352 42.774-33.102 61.524-49.496l-3.961-16.375-27.77-28.172-71.812 56.441c-8.008 6.297-16.168 9.247-24.399 8.844" />
    <path fill="none" stroke="#231F20" stroke-linecap="round" stroke-linejoin="round" stroke-miterlimit="2.613"
        stroke-width="1.6908"
        d="M1722.23 1945.95c-8.289-.403-15.878-3.977-22.718-10.692-5.332-5.227-8.453-10.613-9.371-16.156l-35.621 30.136c4.851 5.758 9.652 10.977 14.41 15.649 10.879 10.676 21.84 18.574 32.82 23.691 7.89 3.645 17.2 5.758 27.988 6.281 10.782.528 21.153-1.023 31.153-4.668 9.96-3.617 19.238-8.789 27.757-15.484 9.364-7.352 42.774-33.102 61.524-49.496l-3.961-16.375-27.77-28.172-71.812 56.441c-8.008 6.297-16.168 9.247-24.399 8.844zm0 0" />
    <path fill="#FAED72" fill-rule="evenodd"
        d="M1688.738 1896.145c.524-7.196 4.672-13.875 12.461-19.997l63.54-49.945-28.848-29.262-9.903-10.043-62.238 48.918c-7.02 5.516-13.852 13.043-20.488 22.575-4.133 5.933-6.82 12.996-8.043 21.21-1.02 6.727-.91 13.098.3 19.11.262 1.3.583 2.586.942 3.855 2.05 7.125 6.277 14.688 12.668 22.664 4.82 6.016 9.582 11.508 14.3 16.465l26.712-22.593 5.55-4.704c-1.84-2.132-3.32-4.289-4.43-6.476-1.972-3.844-2.8-7.77-2.523-11.777" />
    <path fill="none" stroke="#231F20" stroke-linecap="round" stroke-linejoin="round" stroke-miterlimit="2.613"
        stroke-width="1.6908"
        d="M1688.738 1896.145c.524-7.196 4.672-13.875 12.461-19.997l63.54-49.945-28.848-29.262-9.903-10.043-62.238 48.918c-7.02 5.516-13.852 13.043-20.488 22.575-4.133 5.933-6.82 12.996-8.043 21.21-1.02 6.727-.91 13.098.3 19.11.262 1.3.583 2.586.942 3.855 2.05 7.125 6.277 14.688 12.668 22.664 4.82 6.016 9.582 11.508 14.3 16.465l26.712-22.593 5.55-4.704c-1.84-2.132-3.32-4.289-4.43-6.476-1.972-3.844-2.8-7.77-2.523-11.777m0 0" />
    <path fill="#86d77d" fill-rule="evenodd"
        d="M1744.781 1918.918c-7.922 6.223-15.972 9.137-24.101 8.738-8.2-.398-15.692-3.93-22.45-10.558a47.6 47.6 0 0 1-2.539-2.7l-5.55 4.704-26.711 22.593c1.539 1.614 3.07 3.168 4.601 4.668 10.739 10.543 21.57 18.348 32.41 23.399 7.797 3.601 17 5.687 27.649 6.207 10.648.515 20.898-1.008 30.77-4.614 9.831-3.574 19.011-8.68 27.421-15.293l60.008-47.16-27.848-28.238-10.91-11.066z" />
    <path fill="none" stroke="#231F20" stroke-linecap="round" stroke-linejoin="round" stroke-miterlimit="2.613"
        stroke-width="1.6908"
        d="M1744.781 1918.918c-7.922 6.223-15.972 9.137-24.101 8.738-8.2-.398-15.692-3.93-22.45-10.558a47.6 47.6 0 0 1-2.539-2.7l-5.55 4.704-26.711 22.593c1.539 1.614 3.07 3.168 4.601 4.668 10.739 10.543 21.57 18.348 32.41 23.399 7.797 3.601 17 5.687 27.649 6.207 10.648.515 20.898-1.008 30.77-4.614 9.831-3.574 19.011-8.68 27.421-15.293l60.008-47.16-27.848-28.238-10.91-11.066zm0 0" />
    <path fill="none" stroke="#231F20" stroke-linecap="round" stroke-linejoin="round" stroke-miterlimit="2.613"
        stroke-width="5.0716"
        d="M1874.11 1876.242c23.98-1.367 23.57-46.847 27.788-13.84 2.512 19.575 18.25-40.238 23.153-25.14 10.16 31.254 14.558-15.07 31.597-30.653" />
    <path fill="none" stroke="#231F20" stroke-linecap="round" stroke-linejoin="round" stroke-miterlimit="2.613"
        stroke-width="5.0712"
        d="M1847.488 1855.953c19.961-1.137 33-50.133 36.524-22.64 1.597 12.496 18.5-22.805 32.199-35.344" />
    <path fill="none" stroke="#231F20" stroke-linecap="round" stroke-linejoin="round" stroke-miterlimit="2.613"
        stroke-width="5.0716"
        d="M1773.29 1768.727c0-37.5 14.01-9.415 16.788-19.696 3.133-11.554 1.91-36.058 12.602-22.586 9.64 12.153 19.261-23.648 19.261-29.539m-28.382 92.09c-7.16-24.45 10.68-23.297 26.691-9.215 19.969 17.559-15.04-47.504 20.219-23.898 12.21 8.176 16.652-18.77 18.543-28.86" />
    <path fill="#E3E6EB" fill-rule="evenodd"
        d="M94.27 1611.215h51.125c4.214 0 7.664 3.45 7.664 7.664v218.64c0 4.215-3.45 7.665-7.664 7.665H94.27c-4.215 0-7.665-3.45-7.665-7.664v-218.641c0-4.215 3.45-7.664 7.665-7.664" />
    <path fill="none" stroke="#231F20" stroke-miterlimit="2.613" stroke-width="3.8167"
        d="M94.27 1611.215h51.125c4.214 0 7.664 3.45 7.664 7.664v218.64c0 4.215-3.45 7.665-7.664 7.665H94.27c-4.215 0-7.665-3.45-7.665-7.664v-218.641c0-4.215 3.45-7.664 7.665-7.664zm0 0" />
    <path fill="#F1F9F9" fill-rule="evenodd" d="M114.93 1611.215h9.804l-4.906-124.863zm0 0" />
    <path fill="none" stroke="#231F20" stroke-miterlimit="2.613" stroke-width="38.006"
        d="M-5511.258 1144.433v97.632l-1253.958-48.816zm0 0" transform="matrix(0 .09958 .10043 0 0 2160)" />
    <path fill="#F1F9F9" fill-rule="evenodd" d="M108.355 1611.215h22.954v-11.188h-22.954z" />
    <path fill="none" stroke="#231F20" stroke-miterlimit="2.613" stroke-width="38.953"
        d="M1062.121-5600.894h224.991v-114.18h-224.99zm0 0" transform="matrix(.10202 0 0 .09798 0 2160)" />
    <path fill="#F1F9F9" fill-rule="evenodd"
        d="M120.39 1733.914c18.5 0 33.497 3.574 33.497 7.984 0 4.415-14.996 7.989-33.496 7.989-18.496 0-33.493-3.574-33.493-7.989 0-4.41 14.997-7.984 33.493-7.984" />
    <path fill="none" stroke="#231F20" stroke-miterlimit="2.613" stroke-width="38.234"
        d="M1201.803 4268.316c184.677 0 334.376-35.805 334.376-80.022 0-44.18-149.7-79.984-334.376-79.984-184.638 0-334.337 35.805-334.337 79.984 0 44.217 149.7 80.022 334.337 80.022zm0 0"
        transform="matrix(.10018 0 0 -.09983 0 2160)" />
    <path fill="#86d77d" fill-rule="evenodd"
        d="M128.191 1499.18c2.313 3.324 6.332 4.53 8.973 2.691 2.64-1.836 2.906-6.023.594-9.348-2.551-3.664-7.219-2.414-12.703-8.054-.23 3.66.586 11.047 3.136 14.71" />
    <path fill="none" stroke="#231F20" stroke-miterlimit="2.613" stroke-width="52.979"
        d="M-6550.177 6699.249c56.526-.003 102.402 36.229 102.37 80.902.015 44.643-45.85 80.865-102.378 80.868-62.32-.018-85.166-63.147-193.567-80.892 40.103-31.641 131.254-80.896 193.575-80.878zm0 0"
        transform="matrix(.04091 .0588 .05914 -.04114 0 2160)" />
    <path fill="#86d77d" fill-rule="evenodd"
        d="M122.465 1466.023c1.312-2.578 4.039-3.82 6.086-2.777 2.047 1.047 2.64 3.984 1.328 6.559-1.45 2.84-4.875 2.406-8.207 6.93-.52-2.567-.656-7.872.793-10.712" />
    <path fill="none" stroke="#231F20" stroke-miterlimit="2.613" stroke-width="51.198"
        d="M9090.073-2767.074c39.027-.033 70.668 24.976 70.683 55.792-.032 30.84-31.644 55.819-70.67 55.851-43.01-.005-58.801-43.584-133.585-55.825 27.655-21.853 90.562-55.823 133.572-55.818zm0 0"
        transform="matrix(.03369 -.06603 .0664 .03388 0 2160)" />
    <path fill="#86d77d" fill-rule="evenodd"
        d="M100.941 1475.922c-3.066-2.645-3.851-6.766-1.75-9.203 2.102-2.438 6.293-2.27 9.36.375 3.383 2.914 1.652 7.426 6.699 13.465-3.664-.145-10.926-1.723-14.309-4.637" />
    <path fill="none" stroke="#231F20" stroke-miterlimit="2.613" stroke-width="53.678"
        d="M5234.768 8214.482c57.269.02 103.731 36.714 103.722 81.976-.009 45.263-46.464 81.956-103.733 81.937-63.148.014-86.344-63.944-196.095-81.938 40.59-32.101 132.958-81.961 196.106-81.975zm0 0"
        transform="matrix(-.05356 -.04616 .04642 -.05386 0 2160)" />
    <path fill="#F1F9F9" fill-rule="evenodd" d="M114.55 1897.547h10.56V1749.84h-10.56z" />
    <path fill="none" stroke="#231F20" stroke-miterlimit="2.613" stroke-width="38.514"
        d="M2601.095 1155.92v106.545h1463.92v-106.546zm0 0" transform="matrix(0 -.1009 .0991 0 0 2160)" />
    <path fill="#F1F9F9" fill-rule="evenodd"
        d="M119.828 1891.102c18.121 0 32.809 2.53 32.809 5.656 0 3.125-14.688 5.656-32.809 5.656-18.113 0-32.805-2.531-32.805-5.656s14.692-5.656 32.805-5.656" />
    <path fill="none" stroke="#231F20" stroke-miterlimit="2.613" stroke-width="3.8167"
        d="M119.828 1891.102c18.121 0 32.809 2.53 32.809 5.656 0 3.125-14.688 5.656-32.809 5.656-18.113 0-32.805-2.531-32.805-5.656s14.692-5.656 32.805-5.656zm0 0" />
    <path fill="#86d77d" fill-rule="evenodd"
        d="M124.734 1611.215H94.27c-4.215 0-7.665 3.45-7.665 7.664v119.742c5.707-2.777 18.438-4.707 33.223-4.707 14.79 0 27.524 1.93 33.23 4.707V1618.88c0-4.215-3.449-7.664-7.663-7.664h-20.66" />
    <path fill="none" stroke="#231F20" stroke-miterlimit="2.613" stroke-width="3.8167"
        d="M124.734 1611.215H94.27c-4.215 0-7.665 3.45-7.665 7.664v119.742c5.707-2.777 18.438-4.707 33.223-4.707 14.79 0 27.524 1.93 33.23 4.707V1618.88c0-4.215-3.449-7.664-7.663-7.664zm5.844 36.859h22.48" />
    <path fill="none" stroke="#231F20" stroke-miterlimit="2.613" stroke-width="38.136" d="M1123.335 4816.567h408.457"
        transform="matrix(.09992 0 0 -.10008 0 2160)" />
    <path fill="none" stroke="#231F20" stroke-miterlimit="2.613" stroke-width="3.8167" d="M130.578 1707.824h22.48" />
    <path fill="#C0E5D4" fill-rule="evenodd"
        d="m1345.719 1953.543 135.11-36.938c17.55-4.796 35.831 5.633 40.632 23.18 4.789 17.543-5.64 35.824-23.18 40.621l-135.11 36.938c-17.55 4.797-35.831-5.633-40.632-23.18-4.789-17.547 5.64-35.824 23.18-40.621" />
    <path fill="none" stroke="#231F20" stroke-miterlimit="2.613" stroke-width="2.9194"
        d="m1345.719 1953.543 135.11-36.938c17.55-4.796 35.831 5.633 40.632 23.18 4.789 17.543-5.64 35.824-23.18 40.621l-135.11 36.938c-17.55 4.797-35.831-5.633-40.632-23.18-4.789-17.547 5.64-35.824 23.18-40.621zm67.441-18.903 17.68 64.669" />
    <path fill="#037248" fill-rule="evenodd"
        d="m1480.828 1916.605-67.547 18.47 17.438 63.8 67.562-18.469c17.54-4.797 27.969-23.078 23.18-40.62-4.8-17.548-23.082-27.977-40.633-23.18" />
    <path fill="#FFF" fill-rule="evenodd"
        d="M864.406 1446.113c-38.836 0-70.32 31.485-70.32 70.32 0 38.837 31.484 70.32 70.32 70.32 6.184 0 12.176-.8 17.89-2.3 7.255 22.707 29.016 27.074 55.923 24.93-16.664-7.031-29.989-16.367-34.89-34.383 18.925-12.602 31.398-34.125 31.398-58.566 0-38.836-31.485-70.32-70.32-70.32" />
    <path fill="none" stroke="#231F20" stroke-miterlimit="2.613" stroke-width="1.7659"
        d="M864.406 1446.113c-38.836 0-70.32 31.485-70.32 70.32 0 38.837 31.484 70.32 70.32 70.32 6.184 0 12.176-.8 17.89-2.3 7.255 22.707 29.016 27.074 55.923 24.93-16.664-7.031-29.989-16.367-34.89-34.383 18.925-12.602 31.398-34.125 31.398-58.566 0-38.836-31.485-70.32-70.32-70.32zm0 0" />
    <path fill="#F9EE62" fill-rule="evenodd"
        d="M863.219 1479.754c-3.672 0-7.172.742-10.352 2.09a26.59 26.59 0 0 0-8.453 5.703 26.504 26.504 0 0 0-7.793 18.805c0 2.648.39 5.207 1.11 7.617 2.91 9.754 14.042 13.902 14.042 21.062v14h22.895v-14c0-7.636 10.684-9.804 14.043-21.062a26.62 26.62 0 0 0 1.105-7.617c0-14.692-11.906-26.598-26.597-26.598" />
    <path fill="none" stroke="#231F20" stroke-miterlimit="2.613" stroke-width="1.7659"
        d="M863.219 1479.754c-3.672 0-7.172.742-10.352 2.09a26.59 26.59 0 0 0-8.453 5.703 26.504 26.504 0 0 0-7.793 18.805c0 2.648.39 5.207 1.11 7.617 2.91 9.754 14.042 13.902 14.042 21.062v14h22.895v-14c0-7.636 10.684-9.804 14.043-21.062a26.62 26.62 0 0 0 1.105-7.617c0-14.692-11.906-26.598-26.597-26.598zm0 0" />
    <path fill="none" stroke="#231F20" stroke-miterlimit="2.613" stroke-width="1.7659"
        d="M883.66 1505.785c0-5.71-2.316-10.879-6.055-14.62a20.625 20.625 0 0 0-14.62-6.056" />
    <path fill="none" stroke="#231F20" stroke-miterlimit="2.613" stroke-width="17.583" d="M-6439.222 8621.442h303.508"
        transform="matrix(0 .09957 .10043 0 0 2160)" />
    <path fill="none" stroke="#231F20" stroke-miterlimit="2.613" stroke-width="1.7659"
        d="M865.938 1520.8c.062-2.175-.481-4.898 1.082-6.46a3.805 3.805 0 0 1 5.378 0 3.798 3.798 0 0 1 0 5.379c-1.562 1.562-4.285 1.02-6.46 1.082zm-5.434 0c-.063-2.175.476-4.898-1.086-6.46a3.805 3.805 0 0 0-5.379 0 3.805 3.805 0 0 0 0 5.379c1.566 1.562 4.29 1.02 6.465 1.082zm0 0" />
    <path fill="none" stroke="#231F20" stroke-miterlimit="2.613" stroke-width="17.583" d="M-6439.222-8568.158h303.508"
        transform="matrix(0 .09957 -.10043 0 0 2160)" />
    <path fill="none" stroke="#231F20" stroke-miterlimit="2.613" stroke-width="1.7659" d="M860.64 1520.813h5.52" />
    <path fill="none" stroke="#231F20" stroke-miterlimit="2.613" stroke-width="17.657" d="M-5969.473 8556.378v150.026"
        transform="matrix(0 .09999 .1 0 0 2160)" />
    <path fill="none" stroke="#231F20" stroke-miterlimit="2.613" stroke-width="17.628" d="M-5929.134 8554.787v124.547"
        transform="matrix(0 .09982 .10018 0 0 2160)" />
    <path fill="#002633" fill-rule="evenodd" d="M851.941 1553.297H874.5v4.914h-22.559z" />
    <path fill="none" stroke="#231F20" stroke-miterlimit="2.613" stroke-width="17.699"
        d="M8499.825 6081.03h225.069v-49.254h-225.069zm0 0" transform="matrix(.10023 0 0 -.09977 0 2160)" />
    <path fill="none" stroke="#231F20" stroke-miterlimit="2.613" stroke-width="1.7659"
        d="M863.422 1461.832v8.82m22.312-2.839-4.41 7.636m20.742 8.696-7.636 4.406m-62.012 35.804-7.637 4.41m83.266-22.312h-8.82m-71.606 0h-8.82m83.265 22.313-7.636-4.41m-62.012-35.806-7.637-4.405m20.742-8.695-4.41-7.638" />
</svg>