<svg xmlns="http://www.w3.org/2000/svg" version="1.1" xmlns:xlink="http://www.w3.org/1999/xlink" xmlns:svgjs="http://svgjs.dev/svgjs" width="1440" height="560" preserveAspectRatio="none" viewBox="0 0 1440 560">
    <g mask="url(&quot;#SvgjsMask3899&quot;)" fill="none">
        <path d="M19.69 607.81L108.89 659.31L108.89 762.31L19.69 813.81L-69.51 762.31L-69.51 659.31zM376.5 -10.19L465.71 41.31L465.71 144.31L376.5 195.81L287.3 144.31L287.3 41.31zM376.5 607.81L465.71 659.31L465.71 762.31L376.5 813.81L287.3 762.31L287.3 659.31zM554.91 -10.19L644.11 41.31L644.11 144.31L554.91 195.81L465.71 144.31L465.71 41.31zM644.11 144.31L733.32 195.81L733.32 298.81L644.11 350.31L554.91 298.81L554.91 195.81zM733.32 298.81L822.52 350.31L822.52 453.31L733.32 504.81L644.11 453.31L644.11 350.31zM1000.92 144.31L1090.13 195.81L1090.13 298.81L1000.92 350.31L911.72 298.81L911.72 195.81zM911.72 298.81L1000.92 350.31L1000.92 453.31L911.72 504.81L822.52 453.31L822.52 350.31zM911.72 607.81L1000.92 659.31L1000.92 762.31L911.72 813.81L822.52 762.31L822.52 659.31zM1090.13 298.81L1179.33 350.31L1179.33 453.31L1090.13 504.81L1000.92 453.31L1000.92 350.31zM1179.33 453.31L1268.53 504.81L1268.53 607.81L1179.33 659.31L1090.13 607.81L1090.13 504.81zM1090.13 607.81L1179.33 659.31L1179.33 762.31L1090.13 813.81L1000.92 762.31L1000.92 659.31zM1268.53 -10.19L1357.74 41.31L1357.74 144.31L1268.53 195.81L1179.33 144.31L1179.33 41.31zM1357.74 453.31L1446.94 504.81L1446.94 607.81L1357.74 659.31L1268.53 607.81L1268.53 504.81zM1446.94 -10.19L1536.14 41.31L1536.14 144.31L1446.94 195.81L1357.74 144.31L1357.74 41.31z" stroke="url(&quot;#SvgjsLinearGradient3900&quot;)" stroke-width="2"></path>
        <path d="M9.39 607.81 a10.3 10.3 0 1 0 20.6 0 a10.3 10.3 0 1 0 -20.6 0zM98.59 659.31 a10.3 10.3 0 1 0 20.6 0 a10.3 10.3 0 1 0 -20.6 0zM98.59 762.31 a10.3 10.3 0 1 0 20.6 0 a10.3 10.3 0 1 0 -20.6 0zM9.39 813.81 a10.3 10.3 0 1 0 20.6 0 a10.3 10.3 0 1 0 -20.6 0zM-79.81 762.31 a10.3 10.3 0 1 0 20.6 0 a10.3 10.3 0 1 0 -20.6 0zM-79.81 659.31 a10.3 10.3 0 1 0 20.6 0 a10.3 10.3 0 1 0 -20.6 0zM366.2 -10.19 a10.3 10.3 0 1 0 20.6 0 a10.3 10.3 0 1 0 -20.6 0zM455.41 41.31 a10.3 10.3 0 1 0 20.6 0 a10.3 10.3 0 1 0 -20.6 0zM455.41 144.31 a10.3 10.3 0 1 0 20.6 0 a10.3 10.3 0 1 0 -20.6 0zM366.2 195.81 a10.3 10.3 0 1 0 20.6 0 a10.3 10.3 0 1 0 -20.6 0zM277 144.31 a10.3 10.3 0 1 0 20.6 0 a10.3 10.3 0 1 0 -20.6 0zM277 41.31 a10.3 10.3 0 1 0 20.6 0 a10.3 10.3 0 1 0 -20.6 0zM366.2 607.81 a10.3 10.3 0 1 0 20.6 0 a10.3 10.3 0 1 0 -20.6 0zM455.41 659.31 a10.3 10.3 0 1 0 20.6 0 a10.3 10.3 0 1 0 -20.6 0zM455.41 762.31 a10.3 10.3 0 1 0 20.6 0 a10.3 10.3 0 1 0 -20.6 0zM366.2 813.81 a10.3 10.3 0 1 0 20.6 0 a10.3 10.3 0 1 0 -20.6 0zM277 762.31 a10.3 10.3 0 1 0 20.6 0 a10.3 10.3 0 1 0 -20.6 0zM277 659.31 a10.3 10.3 0 1 0 20.6 0 a10.3 10.3 0 1 0 -20.6 0zM544.61 -10.19 a10.3 10.3 0 1 0 20.6 0 a10.3 10.3 0 1 0 -20.6 0zM633.81 41.31 a10.3 10.3 0 1 0 20.6 0 a10.3 10.3 0 1 0 -20.6 0zM633.81 144.31 a10.3 10.3 0 1 0 20.6 0 a10.3 10.3 0 1 0 -20.6 0zM544.61 195.81 a10.3 10.3 0 1 0 20.6 0 a10.3 10.3 0 1 0 -20.6 0zM723.02 195.81 a10.3 10.3 0 1 0 20.6 0 a10.3 10.3 0 1 0 -20.6 0zM723.02 298.81 a10.3 10.3 0 1 0 20.6 0 a10.3 10.3 0 1 0 -20.6 0zM633.81 350.31 a10.3 10.3 0 1 0 20.6 0 a10.3 10.3 0 1 0 -20.6 0zM544.61 298.81 a10.3 10.3 0 1 0 20.6 0 a10.3 10.3 0 1 0 -20.6 0zM812.22 350.31 a10.3 10.3 0 1 0 20.6 0 a10.3 10.3 0 1 0 -20.6 0zM812.22 453.31 a10.3 10.3 0 1 0 20.6 0 a10.3 10.3 0 1 0 -20.6 0zM723.02 504.81 a10.3 10.3 0 1 0 20.6 0 a10.3 10.3 0 1 0 -20.6 0zM633.81 453.31 a10.3 10.3 0 1 0 20.6 0 a10.3 10.3 0 1 0 -20.6 0zM990.62 144.31 a10.3 10.3 0 1 0 20.6 0 a10.3 10.3 0 1 0 -20.6 0zM1079.83 195.81 a10.3 10.3 0 1 0 20.6 0 a10.3 10.3 0 1 0 -20.6 0zM1079.83 298.81 a10.3 10.3 0 1 0 20.6 0 a10.3 10.3 0 1 0 -20.6 0zM990.62 350.31 a10.3 10.3 0 1 0 20.6 0 a10.3 10.3 0 1 0 -20.6 0zM901.42 298.81 a10.3 10.3 0 1 0 20.6 0 a10.3 10.3 0 1 0 -20.6 0zM901.42 195.81 a10.3 10.3 0 1 0 20.6 0 a10.3 10.3 0 1 0 -20.6 0zM990.62 453.31 a10.3 10.3 0 1 0 20.6 0 a10.3 10.3 0 1 0 -20.6 0zM901.42 504.81 a10.3 10.3 0 1 0 20.6 0 a10.3 10.3 0 1 0 -20.6 0zM901.42 607.81 a10.3 10.3 0 1 0 20.6 0 a10.3 10.3 0 1 0 -20.6 0zM990.62 659.31 a10.3 10.3 0 1 0 20.6 0 a10.3 10.3 0 1 0 -20.6 0zM990.62 762.31 a10.3 10.3 0 1 0 20.6 0 a10.3 10.3 0 1 0 -20.6 0zM901.42 813.81 a10.3 10.3 0 1 0 20.6 0 a10.3 10.3 0 1 0 -20.6 0zM812.22 762.31 a10.3 10.3 0 1 0 20.6 0 a10.3 10.3 0 1 0 -20.6 0zM812.22 659.31 a10.3 10.3 0 1 0 20.6 0 a10.3 10.3 0 1 0 -20.6 0zM1169.03 350.31 a10.3 10.3 0 1 0 20.6 0 a10.3 10.3 0 1 0 -20.6 0zM1169.03 453.31 a10.3 10.3 0 1 0 20.6 0 a10.3 10.3 0 1 0 -20.6 0zM1079.83 504.81 a10.3 10.3 0 1 0 20.6 0 a10.3 10.3 0 1 0 -20.6 0zM1258.23 504.81 a10.3 10.3 0 1 0 20.6 0 a10.3 10.3 0 1 0 -20.6 0zM1258.23 607.81 a10.3 10.3 0 1 0 20.6 0 a10.3 10.3 0 1 0 -20.6 0zM1169.03 659.31 a10.3 10.3 0 1 0 20.6 0 a10.3 10.3 0 1 0 -20.6 0zM1079.83 607.81 a10.3 10.3 0 1 0 20.6 0 a10.3 10.3 0 1 0 -20.6 0zM1169.03 762.31 a10.3 10.3 0 1 0 20.6 0 a10.3 10.3 0 1 0 -20.6 0zM1079.83 813.81 a10.3 10.3 0 1 0 20.6 0 a10.3 10.3 0 1 0 -20.6 0zM1258.23 -10.19 a10.3 10.3 0 1 0 20.6 0 a10.3 10.3 0 1 0 -20.6 0zM1347.44 41.31 a10.3 10.3 0 1 0 20.6 0 a10.3 10.3 0 1 0 -20.6 0zM1347.44 144.31 a10.3 10.3 0 1 0 20.6 0 a10.3 10.3 0 1 0 -20.6 0zM1258.23 195.81 a10.3 10.3 0 1 0 20.6 0 a10.3 10.3 0 1 0 -20.6 0zM1169.03 144.31 a10.3 10.3 0 1 0 20.6 0 a10.3 10.3 0 1 0 -20.6 0zM1169.03 41.31 a10.3 10.3 0 1 0 20.6 0 a10.3 10.3 0 1 0 -20.6 0zM1347.44 453.31 a10.3 10.3 0 1 0 20.6 0 a10.3 10.3 0 1 0 -20.6 0zM1436.64 504.81 a10.3 10.3 0 1 0 20.6 0 a10.3 10.3 0 1 0 -20.6 0zM1436.64 607.81 a10.3 10.3 0 1 0 20.6 0 a10.3 10.3 0 1 0 -20.6 0zM1347.44 659.31 a10.3 10.3 0 1 0 20.6 0 a10.3 10.3 0 1 0 -20.6 0zM1436.64 -10.19 a10.3 10.3 0 1 0 20.6 0 a10.3 10.3 0 1 0 -20.6 0zM1525.84 41.31 a10.3 10.3 0 1 0 20.6 0 a10.3 10.3 0 1 0 -20.6 0zM1525.84 144.31 a10.3 10.3 0 1 0 20.6 0 a10.3 10.3 0 1 0 -20.6 0zM1436.64 195.81 a10.3 10.3 0 1 0 20.6 0 a10.3 10.3 0 1 0 -20.6 0z" fill="url(&quot;#SvgjsLinearGradient3900&quot;)"></path>
        <path d="M73.6 47.53L116.91 72.53L116.91 122.53L73.6 147.53L30.3 122.53L30.3 72.53zM30.3 422.53L73.6 447.53L73.6 497.53L30.3 522.53L-13 497.53L-13 447.53zM203.51 122.53L246.81 147.53L246.81 197.53L203.51 222.53L160.21 197.53L160.21 147.53zM203.51 422.53L246.81 447.53L246.81 497.53L203.51 522.53L160.21 497.53L160.21 447.53zM333.42 347.53L376.72 372.53L376.72 422.53L333.42 447.53L290.12 422.53L290.12 372.53zM376.72 122.53L420.02 147.53L420.02 197.53L376.72 222.53L333.42 197.53L333.42 147.53zM420.02 197.53L463.33 222.53L463.33 272.53L420.02 297.53L376.72 272.53L376.72 222.53zM506.63 47.53L549.93 72.53L549.93 122.53L506.63 147.53L463.33 122.53L463.33 72.53zM463.33 272.53L506.63 297.53L506.63 347.53L463.33 372.53L420.02 347.53L420.02 297.53zM506.63 497.53L549.93 522.53L549.93 572.53L506.63 597.53L463.33 572.53L463.33 522.53zM549.93 272.53L593.23 297.53L593.23 347.53L549.93 372.53L506.63 347.53L506.63 297.53zM809.75 122.53L853.05 147.53L853.05 197.53L809.75 222.53L766.44 197.53L766.44 147.53zM853.05 197.53L896.35 222.53L896.35 272.53L853.05 297.53L809.75 272.53L809.75 222.53zM853.05 347.53L896.35 372.53L896.35 422.53L853.05 447.53L809.75 422.53L809.75 372.53zM809.75 422.53L853.05 447.53L853.05 497.53L809.75 522.53L766.44 497.53L766.44 447.53zM896.35 -27.47L939.65 -2.47L939.65 47.53L896.35 72.53L853.05 47.53L853.05 -2.47zM1112.86 197.53L1156.16 222.53L1156.16 272.53L1112.86 297.53L1069.56 272.53L1069.56 222.53zM1199.47 47.53L1242.77 72.53L1242.77 122.53L1199.47 147.53L1156.16 122.53L1156.16 72.53zM1156.16 122.53L1199.47 147.53L1199.47 197.53L1156.16 222.53L1112.86 197.53L1112.86 147.53zM1242.77 -27.47L1286.07 -2.47L1286.07 47.53L1242.77 72.53L1199.47 47.53L1199.47 -2.47zM1286.07 497.53L1329.38 522.53L1329.38 572.53L1286.07 597.53L1242.77 572.53L1242.77 522.53zM1459.28 47.53L1502.59 72.53L1502.59 122.53L1459.28 147.53L1415.98 122.53L1415.98 72.53zM1415.98 122.53L1459.28 147.53L1459.28 197.53L1415.98 222.53L1372.68 197.53L1372.68 147.53z" stroke="url(&quot;#SvgjsLinearGradient3901&quot;)" stroke-width="2"></path>
    </g>
    <defs>
        <mask id="SvgjsMask3899">
            <rect width="1440" height="560" fill="#ffffff"></rect>
        </mask>
        <linearGradient x1="220.03199999999998" y1="780.024" x2="1219.9679999999998" y2="-220.02399999999997" gradientUnits="userSpaceOnUse" id="SvgjsLinearGradient3900">
            <stop stop-color="rgba(158, 0, 129, 1)" offset="0"></stop>
            <stop stop-color="rgba(3, 114, 72, 1)" offset="0"></stop>
        </linearGradient>
        <linearGradient x1="220.03199999999998" y1="-220.02399999999997" x2="1219.9679999999998" y2="780.024" gradientUnits="userSpaceOnUse" id="SvgjsLinearGradient3901">
            <stop stop-color="rgba(14, 42, 71, 1)" offset="0"></stop>
            <stop stop-color="rgba(0, 178, 109, 1)" offset="0.37"></stop>
        </linearGradient>
    </defs>
</svg>